<svg width="321" height="278" viewBox="0 0 321 278" fill="none" xmlns="http://www.w3.org/2000/svg">
<g clip-path="url(#clip0_525_76740)">
<mask id="mask0_525_76740" style="mask-type:luminance" maskUnits="userSpaceOnUse" x="122" y="134" width="41" height="29">
<path d="M152.004 135.175C146.384 138.291 139.694 141.674 135.323 143.455C129.971 145.681 125.689 146.927 122.389 147.64C123.727 153.604 125.51 159.569 127.473 161.973C127.651 162.24 127.83 162.418 128.098 162.685C133.628 161.35 140.676 159.302 149.15 155.83C153.253 154.228 157.892 152.358 162.887 150.132C162.887 150.132 161.014 134.463 154.502 134.463C153.699 134.463 152.897 134.73 152.004 135.175Z" fill="white"/>
</mask>
<g mask="url(#mask0_525_76740)">
<path d="M122.389 134.463H162.798V162.685H122.389V134.463Z" fill="url(#paint0_linear_525_76740)"/>
</g>
<mask id="mask1_525_76740" style="mask-type:luminance" maskUnits="userSpaceOnUse" x="112" y="122" width="81" height="39">
<path d="M171.185 123.603C163.959 128.588 160.034 131.17 144.513 139.183C124.442 149.599 115.343 148.174 115.343 148.174C115.343 148.174 109.991 157.345 115.254 159.659C129.08 165.624 186.617 135.176 191.791 131.437C195.983 128.5 184.654 122.178 176.448 122.178C174.396 122.268 172.612 122.624 171.185 123.603Z" fill="white"/>
</mask>
<g mask="url(#mask1_525_76740)">
<path d="M113.647 104.819L204.813 124.138L192.325 183.075L101.158 163.756L113.647 104.819Z" fill="url(#paint1_linear_525_76740)"/>
</g>
<mask id="mask2_525_76740" style="mask-type:luminance" maskUnits="userSpaceOnUse" x="145" y="73" width="84" height="83">
<path d="M167.615 87.1899C167.615 87.1899 178.41 73.3016 197.856 101.167C213.734 123.87 212.664 138.559 208.025 144.257C198.123 156.187 167.259 135.176 149.597 96.0928L145.314 97.8731C145.314 97.8731 176.179 156.721 211.147 155.92C242.279 155.119 222.12 108.913 220.692 105.797C219.265 102.681 205.26 76.7734 190.719 73.5684C189.471 73.3016 188.311 73.2123 187.151 73.2123C174.93 73.1236 167.615 87.1899 167.615 87.1899Z" fill="white"/>
</mask>
<g mask="url(#mask2_525_76740)">
<path d="M118.285 82.9157L230.861 41.9626L269.219 146.927L156.643 187.791L118.285 82.9157Z" fill="url(#paint2_linear_525_76740)"/>
</g>
<mask id="mask3_525_76740" style="mask-type:luminance" maskUnits="userSpaceOnUse" x="146" y="100" width="16" height="17">
<path d="M146.74 100.367C148.614 103.572 152.092 109.448 156.91 116.302L161.102 116.57C157.713 111.584 154.501 106.065 151.557 100.099L146.74 100.367Z" fill="white"/>
</mask>
<g mask="url(#mask3_525_76740)">
<path d="M150.308 122.714L139.604 104.196L157.534 93.8684L168.238 112.386L150.308 122.714Z" fill="url(#paint3_linear_525_76740)"/>
</g>
<mask id="mask4_525_76740" style="mask-type:luminance" maskUnits="userSpaceOnUse" x="168" y="73" width="61" height="77">
<path d="M168.688 85.3203L169.401 85.5876C173.237 82.9167 183.049 80.0677 197.768 101.167C205.618 112.385 209.275 121.555 210.524 128.766L225.243 149.332C234.074 136.245 221.764 108.201 220.693 105.797C219.266 102.681 205.261 76.7739 190.721 73.5689C189.472 73.3016 188.312 73.2129 187.152 73.2129C177.697 73.1236 171.185 81.4925 168.688 85.3203Z" fill="white"/>
</mask>
<g mask="url(#mask4_525_76740)">
<path d="M168.688 73.123H234.074V149.331H168.688V73.123Z" fill="url(#paint4_linear_525_76740)"/>
</g>
<mask id="mask5_525_76740" style="mask-type:luminance" maskUnits="userSpaceOnUse" x="207" y="109" width="22" height="41">
<path d="M207.133 117.638C208.917 121.734 209.988 125.473 210.523 128.767L225.241 149.332C232.467 138.56 225.42 117.638 222.119 109.27L207.133 117.638Z" fill="white"/>
</mask>
<g mask="url(#mask5_525_76740)">
<path d="M220.693 96.5386L252.538 130.636L218.908 161.886L187.062 127.787L220.693 96.5386Z" fill="url(#paint5_linear_525_76740)"/>
</g>
<mask id="mask6_525_76740" style="mask-type:luminance" maskUnits="userSpaceOnUse" x="168" y="120" width="40" height="21">
<path d="M168.062 125.828C168.062 125.828 176.804 135.977 182.87 140.162C190.988 135.621 199.373 130.369 207.312 124.315L175.823 120.575C171.185 124.048 168.062 125.828 168.062 125.828Z" fill="white"/>
</mask>
<g mask="url(#mask6_525_76740)">
<path d="M168.062 120.575H207.312V140.162H168.062V120.575Z" fill="url(#paint6_linear_525_76740)"/>
</g>
<mask id="mask7_525_76740" style="mask-type:luminance" maskUnits="userSpaceOnUse" x="133" y="14" width="83" height="63">
<path d="M167.616 16.8572C155.573 20.3292 141.657 29.4102 135.859 43.4766C132.469 51.6673 131.577 62.4399 136.216 73.7465C140.319 83.8063 137.822 66.8911 137.822 66.8911C137.465 64.4875 135.413 46.7707 154.235 35.019C162.977 29.5882 173.949 26.0271 186.884 27.0954C191.79 27.5406 196.696 28.4309 201.513 30.4785C214.18 35.9983 215.162 44.456 215.518 48.0171C215.518 48.0171 216.321 45.1682 215.429 39.7374C213.288 25.9381 201.067 14.6315 182.423 14.6315C177.963 14.6315 172.968 15.3437 167.616 16.8572Z" fill="white"/>
</mask>
<g mask="url(#mask7_525_76740)">
<path d="M99.0156 61.0145L159.407 -25.0758L248.879 37.3331L188.487 123.423L99.0156 61.0145Z" fill="url(#paint7_linear_525_76740)"/>
</g>
<mask id="mask8_525_76740" style="mask-type:luminance" maskUnits="userSpaceOnUse" x="133" y="15" width="39" height="47">
<path d="M167.615 16.8585C155.573 20.3306 141.657 29.4115 135.859 43.478C133.897 48.2855 132.737 54.0726 133.093 60.2153L137.554 61.7288C137.821 55.0514 140.587 43.389 154.235 34.9312C157.357 32.9726 160.747 31.2811 164.404 29.9456L171.095 15.8792C169.935 16.2353 168.775 16.5024 167.615 16.8585Z" fill="white"/>
</mask>
<g mask="url(#mask8_525_76740)">
<path d="M112.221 49.0869L143.442 -1.12512L191.701 28.6994L160.48 78.9113L112.221 49.0869Z" fill="url(#paint8_linear_525_76740)"/>
</g>
<path d="M222.566 111.138C231.843 135.265 230.416 155.385 211.416 155.385C195.27 155.385 177.696 142.298 163.334 124.671C159.588 119.952 151.292 109.447 144.245 93.8671C139.963 84.3408 102.675 90.3948 113.737 112.207C122.212 128.944 132.738 143.901 138.447 150.934C154.147 170.075 179.926 199.365 208.383 193.045C235.769 186.901 235.857 140.518 224.083 109.625C223.548 110.159 222.566 111.138 222.566 111.138Z" fill="#DEDC00"/>
<mask id="mask9_525_76740" style="mask-type:luminance" maskUnits="userSpaceOnUse" x="112" y="89" width="84" height="105">
<path d="M112.041 101.612C112.13 105.707 113.022 109.713 114.985 113.363C116.679 117.191 119.088 121.91 121.943 126.984C128.187 137.401 134.521 146.037 138.445 150.933C151.201 166.424 170.559 188.681 192.682 193.132C198.034 191.886 193.128 181.292 189.827 174.615C183.85 162.685 178.855 142.387 178.319 140.25C173.146 135.709 168.061 130.457 163.334 124.67C159.587 119.952 151.291 109.446 144.244 93.8661C142.906 90.9279 138.535 89.5037 133.361 89.5037C124.797 89.5037 114.182 93.5101 112.041 101.612Z" fill="white"/>
</mask>
<g mask="url(#mask9_525_76740)">
<path d="M114.627 207.824L94.1992 92.621L195.446 74.7258L215.874 189.928L114.627 207.824Z" fill="url(#paint9_linear_525_76740)"/>
</g>
<path d="M144.155 93.8678C139.873 84.3415 135.68 72.8569 134.075 59.4134C131.666 38.759 150.934 19.796 173.057 16.502C195.626 13.1189 215.518 22.3778 215.518 48.2851C215.518 84.3415 189.738 111.584 167.883 125.74C172.165 130.903 175.555 134.286 180.015 138.026C181.442 137.313 182.602 136.601 184.029 135.889C217.748 117.46 245.937 89.3273 249.416 58.7013C253.341 23.9803 232.378 8.66745 215.251 3.41478C191.968 -3.79652 169.846 1.99033 158.963 6.35273C143.709 12.4067 129.972 22.5559 120.159 35.2869C99.7312 61.7283 102.853 89.7721 113.647 112.297C122.032 129.568 151.202 109.448 144.155 93.8678Z" fill="#0090D6"/>
<mask id="mask10_525_76740" style="mask-type:luminance" maskUnits="userSpaceOnUse" x="105" y="21" width="53" height="77">
<path d="M116.501 48.2837C113.915 50.5094 111.417 52.7351 109.187 54.8719C103.834 69.4722 104.28 84.0731 108.027 97.4273L135.859 70.0069C135.056 66.6238 134.431 63.1515 134.075 59.5011C132.202 43.9213 142.816 29.2316 157.714 21.5752C148.615 25.6705 133.093 33.9502 116.501 48.2837Z" fill="white"/>
</mask>
<g mask="url(#mask10_525_76740)">
<path d="M104.191 16.8556L164.314 22.1083L157.356 102.056L97.2324 96.8029L104.191 16.8556Z" fill="url(#paint10_linear_525_76740)"/>
</g>
<mask id="mask11_525_76740" style="mask-type:luminance" maskUnits="userSpaceOnUse" x="68" y="48" width="140" height="118">
<path d="M157.535 48.1051C148.971 48.3722 140.943 54.0698 131.845 61.4593C123.459 68.3147 112.576 79.1759 103.032 89.9484C88.1345 106.775 75.7348 125.56 70.2933 139.715C63.0681 158.411 75.1104 163.397 86.4396 164.733C96.5195 165.889 105.975 165.889 117.929 164.465C117.929 164.465 111.506 164.643 110.971 159.657C109.9 151.912 133.361 121.019 144.69 108.912C156.197 96.5365 167.704 87.0107 170.648 84.5178C174.841 81.1347 181.085 70.0062 192.325 74.1013C194.823 75.1695 198.748 76.9503 206.419 84.6065C206.776 83.8944 207.4 82.737 207.757 81.9361C206.419 80.2446 200.532 72.4991 190.987 64.3083C181.531 56.0287 168.686 48.0161 158.249 48.0161C157.981 48.1051 157.714 48.1051 157.535 48.1051Z" fill="white"/>
</mask>
<g mask="url(#mask11_525_76740)">
<path d="M11.9551 136.509L99.1966 -14.3939L258.872 77.4834L171.631 228.387L11.9551 136.509Z" fill="url(#paint11_linear_525_76740)"/>
</g>
<path d="M44.5129 240.586V275.218H55.7529V235.6L44.5129 240.586ZM25.2448 259.371C25.2448 266.849 19.8925 266.938 17.484 266.938H11.2397V251.714H17.7516C23.4607 251.803 25.2448 254.652 25.2448 259.371ZM24.6204 236.668C24.6204 241.832 21.2306 243.524 18.7329 243.524H11.2397V229.902H18.1977C21.9443 229.902 24.6204 232.751 24.6204 236.668ZM26.4044 247.441V247.263C32.4703 246.105 35.5033 241.654 35.5033 235.511C35.5033 224.115 28.4561 221.623 19.8925 221.623H0V275.128H19.8033C24.5311 275.128 36.3953 274.506 36.3953 260.973C36.3953 253.673 34.3436 248.598 26.4044 247.441ZM55.7529 228.834V221.623H44.5129V233.819L55.7529 228.834ZM66.1003 275.218H94.1103V266.315H77.3401V221.623H66.1003V275.218ZM109.275 229.902H125.956V221.623H98.1249V275.128H109.364V251.803H125.243V243.613H109.364V229.902H109.275ZM132.201 275.218H143.44V221.623H132.201V275.218ZM179.122 275.218H193.93V221.623H183.404V258.659H183.225L168.953 221.623H153.788V275.128H164.225V235.956H164.403L179.122 275.218ZM238.264 238.093C238.978 226.875 232.109 220.732 221.137 220.732C202.761 220.732 202.137 234.443 202.137 247.975C202.137 268.274 204.277 276.108 223.189 276.108C227.649 276.108 235.321 274.95 238.354 274.328V247.174H221.048V255.364H227.114V267.205C225.419 267.828 223.367 268.274 221.494 268.274C215.072 268.274 213.466 265.335 213.466 248.509C213.466 238.093 213.466 228.745 220.424 228.745C226.4 228.745 227.203 233.107 227.114 238.093H238.264ZM247.274 275.218H277.157V267.027H258.514V251.358H275.195V243.168H258.514V229.991H276.533V221.623H247.274V275.218ZM306.238 236.936C306.238 240.319 304.989 244.77 300.529 244.77H295.533V229.902H300.529C304.008 229.902 306.238 231.772 306.238 236.936ZM317.567 235.689C317.567 226.608 312.661 221.712 304.989 221.712H284.294V275.218H295.533V253.049H298.388C307.041 253.049 306.416 258.481 306.416 264.801C306.416 268.274 306.149 271.923 307.576 275.218H318.548C317.478 272.992 317.299 262.932 317.299 259.459C317.299 249.844 309.985 249.222 307.576 248.954V248.776C314.891 247.619 317.567 242.455 317.567 235.689Z" fill="#484847"/>
</g>
<defs>
<linearGradient id="paint0_linear_525_76740" x1="119.42" y1="148.601" x2="201.789" y2="148.601" gradientUnits="userSpaceOnUse">
<stop stop-color="#EAEAEA"/>
<stop offset="0.08327" stop-color="#E4E5E5"/>
<stop offset="0.1703" stop-color="#D8D9D9"/>
<stop offset="0.2619" stop-color="#B1B2B2"/>
<stop offset="0.3462" stop-color="#929392"/>
<stop offset="0.3809" stop-color="#858685"/>
<stop offset="0.4455" stop-color="#636362"/>
<stop offset="0.5324" stop-color="#2B2B2A"/>
<stop offset="0.5604" stop-color="#181716"/>
<stop offset="0.6123" stop-color="#4E4E4D"/>
<stop offset="0.6631" stop-color="#7C7D7C"/>
<stop offset="0.7078" stop-color="#9D9E9E"/>
<stop offset="0.7447" stop-color="#B2B3B3"/>
<stop offset="0.7692" stop-color="#B9BABA"/>
<stop offset="0.7735" stop-color="#BCBDBD"/>
<stop offset="0.8099" stop-color="#CFD0D0"/>
<stop offset="0.8468" stop-color="#DBDBDB"/>
<stop offset="0.8846" stop-color="#DFDFDF"/>
<stop offset="0.982" stop-color="#E6E6E6"/>
<stop offset="1" stop-color="#E6E6E6"/>
</linearGradient>
<linearGradient id="paint1_linear_525_76740" x1="110.524" y1="134.948" x2="194.102" y2="152.71" gradientUnits="userSpaceOnUse">
<stop stop-color="#00527A"/>
<stop offset="0.07001" stop-color="#005B88"/>
<stop offset="0.201" stop-color="#0074AC"/>
<stop offset="0.3094" stop-color="#008BCE"/>
<stop offset="0.3385" stop-color="#008DD1"/>
<stop offset="0.4365" stop-color="#0090D6"/>
<stop offset="0.442" stop-color="#0491D7"/>
<stop offset="0.4969" stop-color="#289EDC"/>
<stop offset="0.5481" stop-color="#43A7E0"/>
<stop offset="0.5939" stop-color="#52ADE2"/>
<stop offset="0.6298" stop-color="#58AFE3"/>
<stop offset="1" stop-color="#58AFE3"/>
</linearGradient>
<linearGradient id="paint2_linear_525_76740" x1="138.212" y1="135.098" x2="237.115" y2="98.9805" gradientUnits="userSpaceOnUse">
<stop stop-color="#A7A7A8"/>
<stop offset="0.00155" stop-color="#A7A7A8"/>
<stop offset="0.09923" stop-color="#AAAAAB"/>
<stop offset="0.1711" stop-color="#B3B3B4"/>
<stop offset="0.2346" stop-color="#C3C3C4"/>
<stop offset="0.293" stop-color="#D9DADA"/>
<stop offset="0.3242" stop-color="#E8E9E9"/>
<stop offset="0.4518" stop-color="#E0E1E1"/>
<stop offset="0.5385" stop-color="#D8D8D9"/>
<stop offset="0.6209" stop-color="#BFBFC0"/>
<stop offset="0.7418" stop-color="#939494"/>
<stop offset="0.8286" stop-color="#959696"/>
<stop offset="0.8632" stop-color="#9C9D9D"/>
<stop offset="0.8886" stop-color="#A8A9A9"/>
<stop offset="0.9092" stop-color="#B9BABA"/>
<stop offset="0.9231" stop-color="#CACACB"/>
<stop offset="0.9395" stop-color="#D4D5D5"/>
<stop offset="0.9649" stop-color="#DDDEDE"/>
<stop offset="1" stop-color="#E0E1E1"/>
</linearGradient>
<linearGradient id="paint3_linear_525_76740" x1="168.894" y1="134.308" x2="134.874" y2="75.2677" gradientUnits="userSpaceOnUse">
<stop stop-color="#EEEEEE"/>
<stop offset="0.01588" stop-color="#EEEEEE"/>
<stop offset="0.1085" stop-color="#E6E6E6"/>
<stop offset="0.2498" stop-color="#D1D2D2"/>
<stop offset="0.3736" stop-color="#B9BABA"/>
<stop offset="0.3831" stop-color="#B5B6B6"/>
<stop offset="0.4846" stop-color="#8F8F8F"/>
<stop offset="0.5655" stop-color="#777777"/>
<stop offset="0.6154" stop-color="#6E6E6E"/>
<stop offset="0.6707" stop-color="#7E7E7E"/>
<stop offset="0.7788" stop-color="#A7A8A8"/>
<stop offset="0.8901" stop-color="#D8D9D9"/>
<stop offset="0.9321" stop-color="#DFDFDF"/>
<stop offset="1" stop-color="#E4E4E4"/>
</linearGradient>
<linearGradient id="paint4_linear_525_76740" x1="159.313" y1="111.204" x2="292.187" y2="111.146" gradientUnits="userSpaceOnUse">
<stop stop-color="#F6F6F6"/>
<stop offset="0.00549" stop-color="#F6F6F6"/>
<stop offset="0.0644" stop-color="#E8E8E8"/>
<stop offset="0.1749" stop-color="#C4C5C5"/>
<stop offset="0.2418" stop-color="#ABACAC"/>
<stop offset="0.2686" stop-color="#9F9F9F"/>
<stop offset="0.3712" stop-color="#737372"/>
<stop offset="0.4231" stop-color="#626261"/>
<stop offset="0.4817" stop-color="#676766"/>
<stop offset="0.5507" stop-color="#747574"/>
<stop offset="0.5714" stop-color="#7A7B7A"/>
<stop offset="0.6614" stop-color="#A7A8A8"/>
<stop offset="0.7363" stop-color="#C9CACA"/>
<stop offset="0.8306" stop-color="#E2E3E3"/>
<stop offset="0.9327" stop-color="#F7F7F7"/>
<stop offset="1" stop-color="white"/>
</linearGradient>
<linearGradient id="paint5_linear_525_76740" x1="199.756" y1="107.73" x2="240.419" y2="151.421" gradientUnits="userSpaceOnUse">
<stop stop-color="#EEEEEE"/>
<stop offset="0.00693" stop-color="#E8E8E8"/>
<stop offset="0.08481" stop-color="#ACACAC"/>
<stop offset="0.151" stop-color="#80807F"/>
<stop offset="0.2021" stop-color="#656564"/>
<stop offset="0.232" stop-color="#5B5B5A"/>
<stop offset="0.4199" stop-color="#585857"/>
<stop offset="0.663" stop-color="#7F7F7F"/>
<stop offset="0.729" stop-color="#8B8B8B"/>
<stop offset="0.8484" stop-color="#AAABAB"/>
<stop offset="0.9945" stop-color="#D9DADA"/>
<stop offset="1" stop-color="#D9DADA"/>
</linearGradient>
<linearGradient id="paint6_linear_525_76740" x1="119.421" y1="130.36" x2="201.789" y2="130.36" gradientUnits="userSpaceOnUse">
<stop stop-color="#EAEAEA"/>
<stop offset="0.08327" stop-color="#E4E5E5"/>
<stop offset="0.1703" stop-color="#D8D9D9"/>
<stop offset="0.2505" stop-color="#B1B2B2"/>
<stop offset="0.3242" stop-color="#929392"/>
<stop offset="0.3789" stop-color="#7B7C7B"/>
<stop offset="0.5" stop-color="#4C4C4B"/>
<stop offset="0.5604" stop-color="#3A3A39"/>
<stop offset="0.6278" stop-color="#747473"/>
<stop offset="0.6854" stop-color="#9E9E9E"/>
<stop offset="0.7302" stop-color="#B7B8B8"/>
<stop offset="0.7569" stop-color="#C1C2C2"/>
<stop offset="0.7921" stop-color="#D0D0D0"/>
<stop offset="0.8375" stop-color="#DBDBDB"/>
<stop offset="0.8846" stop-color="#DFDFDF"/>
<stop offset="0.982" stop-color="#E6E6E6"/>
<stop offset="1" stop-color="#E6E6E6"/>
</linearGradient>
<linearGradient id="paint7_linear_525_76740" x1="147.488" y1="86.9257" x2="204.202" y2="5.69439" gradientUnits="userSpaceOnUse">
<stop stop-color="#DADBDB"/>
<stop offset="0.00549" stop-color="#DADBDB"/>
<stop offset="0.0168" stop-color="#E3E3E3"/>
<stop offset="0.04516" stop-color="#F3F3F3"/>
<stop offset="0.07728" stop-color="#FCFCFC"/>
<stop offset="0.1209" stop-color="white"/>
<stop offset="0.2364" stop-color="#CECECE"/>
<stop offset="0.4084" stop-color="#898989"/>
<stop offset="0.489" stop-color="#6E6E6E"/>
<stop offset="0.5369" stop-color="#717171"/>
<stop offset="0.5784" stop-color="#7C7C7C"/>
<stop offset="0.6174" stop-color="#8D8E8E"/>
<stop offset="0.65" stop-color="#A2A3A3"/>
<stop offset="0.7802" stop-color="#D0D0D1"/>
<stop offset="0.8038" stop-color="#DDDDDE"/>
<stop offset="0.8489" stop-color="#F0F0F0"/>
<stop offset="0.8954" stop-color="#FBFBFB"/>
<stop offset="0.9451" stop-color="white"/>
<stop offset="1" stop-color="white"/>
</linearGradient>
<linearGradient id="paint8_linear_525_76740" x1="120.322" y1="89.7496" x2="180.926" y2="-8.2836" gradientUnits="userSpaceOnUse">
<stop stop-color="white"/>
<stop offset="0.1768" stop-color="white"/>
<stop offset="0.2572" stop-color="#DEDEDF"/>
<stop offset="0.3429" stop-color="#C2C2C3"/>
<stop offset="0.3923" stop-color="#B7B7B8"/>
<stop offset="0.3925" stop-color="#B7B7B8"/>
<stop offset="0.4889" stop-color="#828283"/>
<stop offset="0.5359" stop-color="#6E6E6E"/>
<stop offset="0.5756" stop-color="#676766"/>
<stop offset="0.6298" stop-color="#626261"/>
<stop offset="0.7033" stop-color="#858585"/>
<stop offset="0.7459" stop-color="#9C9C9C"/>
<stop offset="0.7821" stop-color="#B4B4B4"/>
<stop offset="0.8277" stop-color="#CBCCCC"/>
<stop offset="0.8766" stop-color="#DBDCDC"/>
<stop offset="0.9307" stop-color="#E5E6E6"/>
<stop offset="1" stop-color="#E8E9E9"/>
</linearGradient>
<linearGradient id="paint9_linear_525_76740" x1="165.242" y1="198.911" x2="141.86" y2="66.3806" gradientUnits="userSpaceOnUse">
<stop stop-color="#DEDC00"/>
<stop offset="0.1989" stop-color="#DEDC00"/>
<stop offset="0.2313" stop-color="#D2D816"/>
<stop offset="0.2933" stop-color="#BFD03C"/>
<stop offset="0.326" stop-color="#B7CD4A"/>
<stop offset="0.4144" stop-color="#8DBF79"/>
<stop offset="0.4276" stop-color="#81BB7D"/>
<stop offset="0.496" stop-color="#4AAB92"/>
<stop offset="0.555" stop-color="#229EA1"/>
<stop offset="0.6015" stop-color="#0997AB"/>
<stop offset="0.6298" stop-color="#0094AE"/>
<stop offset="0.8084" stop-color="#00728E"/>
<stop offset="1" stop-color="#004968"/>
</linearGradient>
<linearGradient id="paint10_linear_525_76740" x1="66.1265" y1="53.8503" x2="186.871" y2="64.3817" gradientUnits="userSpaceOnUse">
<stop stop-color="#00172D"/>
<stop offset="0.04972" stop-color="#00172D"/>
<stop offset="0.3325" stop-color="#00537B"/>
<stop offset="0.3481" stop-color="#00567F"/>
<stop offset="0.4069" stop-color="#006697"/>
<stop offset="0.478" stop-color="#0075AD"/>
<stop offset="0.5462" stop-color="#007EBA"/>
<stop offset="0.6077" stop-color="#0081BF"/>
<stop offset="0.831" stop-color="#0088CA"/>
<stop offset="0.9945" stop-color="#0090D6"/>
<stop offset="1" stop-color="#0090D6"/>
</linearGradient>
<linearGradient id="paint11_linear_525_76740" x1="93.0441" y1="180.244" x2="178.843" y2="31.1927" gradientUnits="userSpaceOnUse">
<stop stop-color="#ADA900"/>
<stop offset="0.28" stop-color="#B8B700"/>
<stop offset="0.3708" stop-color="#C5C300"/>
<stop offset="0.5801" stop-color="#E0DC00"/>
<stop offset="0.9945" stop-color="#DEDC00"/>
<stop offset="1" stop-color="#DEDC00"/>
</linearGradient>
<clipPath id="clip0_525_76740">
<rect width="321" height="278" fill="white"/>
</clipPath>
</defs>
</svg>
