<?xml version="1.0" encoding="utf-8"?>
<!-- Generator: Adobe Illustrator 25.0.0, SVG Export Plug-In . SVG Version: 6.00 Build 0)  -->
<svg version="1.1" id="Laag_1" xmlns="http://www.w3.org/2000/svg" xmlns:xlink="http://www.w3.org/1999/xlink" x="0px" y="0px"
	 viewBox="0 0 138.9 17" style="enable-background:new 0 0 138.9 17;" xml:space="preserve">
<style type="text/css">
	.st0{fill:#001059;}
	.st1{fill:none;}
</style>
<path class="st0" d="M23.7,13.5L23.7,13.5L16.4,12l0,0l0,0L23.7,13.5L23.7,13.5L23.7,13.5z"/>
<path class="st0" d="M1.8,11.2L1.8,11.2L1.8,11.2l6.6-1.4L10,2.5l0,0l0,0L8.4,9.8l0,0L1.8,11.2L1.8,11.2z"/>
<path class="st0" d="M14.2,15.5L14.2,15.5L8.4,9.8l0,0l0,0L14.2,15.5C14.3,15.5,14.3,15.5,14.2,15.5L14.2,15.5z"/>
<g>
	<g>
		<g>
			<path class="st0" d="M5.4,14.5L5.4,14.5L5.4,14.5l6.9-3.5l-0.4-6.9l0,0l0,0l0.4,6.9L5.4,14.5L5.4,14.5z"/>
		</g>
		<g>
			<path class="st0" d="M18.8,14.6L18.8,14.6L12.3,11l0,0l0,0L18.8,14.6L18.8,14.6L18.8,14.6z"/>
		</g>
	</g>
</g>
<path class="st0" d="M11.5,16.7L11.5,16.7L11.5,16.7l4.8-4.7l-2.2-5.5l0,0l0,0l2.2,5.5l0,0L11.5,16.7L11.5,16.7z"/>
<path class="st0" d="M0.8,9.6c-0.1,0-0.1,0-0.1-0.1s0-0.2,0.1-0.2L9,7.7l1.4-7.3c0-0.1,0.1-0.1,0.2-0.1s0.1,0.1,0.1,0.2L9.2,8
	L0.8,9.6L0.8,9.6z"/>
<line class="st1" x1="14.7" y1="13.5" x2="9.1" y2="7.9"/>
<path class="st0" d="M14.7,13.7h-0.1L9,8C8.9,7.9,8.9,7.8,9,7.8c0.1-0.1,0.2-0.1,0.2,0l5.8,5.7c0.1,0.1,0.1,0.2,0,0.2
	C14.8,13.7,14.8,13.7,14.7,13.7z"/>
<g>
	<g>
		<g>
			<path class="st0" d="M5.7,12.5c-0.1,0-0.1,0-0.1-0.1s0-0.2,0.1-0.2l6.9-3.3l-0.3-6.8c0-0.1,0.1-0.2,0.1-0.2
				c0.1,0,0.2,0.1,0.2,0.1L13,9L5.7,12.5C5.8,12.5,5.8,12.5,5.7,12.5z"/>
		</g>
		<g>
			<path class="st0" d="M19.1,12.8C19.1,12.8,19,12.8,19.1,12.8l-6.5-3.7c-0.1,0-0.1-0.1-0.1-0.2c0-0.1,0.1-0.1,0.2-0.1l6.4,3.7
				c0.1,0,0.1,0.1,0.1,0.2C19.2,12.8,19.2,12.8,19.1,12.8z"/>
		</g>
	</g>
</g>
<g>
	<g>
		<g>
			<path class="st0" d="M5.7,12.5c-0.1,0-0.1,0-0.1-0.1s0-0.2,0.1-0.2l6.9-3.3l-0.3-6.8c0-0.1,0.1-0.2,0.1-0.2
				c0.1,0,0.2,0.1,0.2,0.1L13,9L5.7,12.5C5.8,12.5,5.8,12.5,5.7,12.5z"/>
		</g>
		<g>
			<path class="st0" d="M19.1,12.8C19.1,12.8,19,12.8,19.1,12.8l-6.5-3.7c-0.1,0-0.1-0.1-0.1-0.2c0-0.1,0.1-0.1,0.2-0.1l6.4,3.7
				c0.1,0,0.1,0.1,0.1,0.2C19.2,12.8,19.2,12.8,19.1,12.8z"/>
		</g>
	</g>
</g>
<path class="st0" d="M12.1,14.8H12c-0.1-0.1-0.1-0.2,0-0.2l4.8-4.6l-2.1-5.4c0-0.1,0-0.2,0.1-0.2s0.2,0,0.2,0.1l2.2,5.7L12.3,15
	C12.2,14.8,12.2,14.8,12.1,14.8z"/>
<path class="st0" d="M22.2,11.2L22.2,11.2l-5.2-1c-0.1,0-0.1-0.1-0.1-0.2c0-0.1,0.1-0.1,0.2-0.1l5.2,1.1c0.1,0,0.1,0.1,0.1,0.2
	C22.3,11.1,22.3,11.2,22.2,11.2z"/>
<g>
	<g>
		<g>
			<path class="st0" d="M9.2,7.8C9.2,7.9,9.1,8,9,8S8.8,7.9,8.8,7.8S8.9,7.6,9,7.6C9.1,7.7,9.2,7.7,9.2,7.8z"/>
		</g>
		<g>
			<g>
				<path class="st0" d="M9,8.1C8.9,8.1,8.8,8,8.8,7.9c0-0.2,0.1-0.3,0.2-0.3c0.1,0,0.2,0.1,0.2,0.2C9.2,8,9.1,8.1,9,8.1z M9,7.7
					c-0.1,0-0.1,0-0.1,0.1s0,0.1,0.1,0.1s0.1,0,0.1-0.1C9.1,7.8,9.1,7.7,9,7.7z"/>
			</g>
		</g>
	</g>
</g>
<g>
	<g>
		<g>
			<path class="st0" d="M11.2,9.8c0,0.1-0.1,0.2-0.2,0.2c-0.1,0-0.2-0.1-0.2-0.2c0-0.1,0.1-0.2,0.2-0.2C11.1,9.7,11.2,9.7,11.2,9.8z
				"/>
		</g>
		<g>
			<g>
				<path class="st0" d="M11.1,10.2c-0.1,0-0.2-0.1-0.2-0.2c0-0.1,0.1-0.2,0.2-0.2c0.1,0,0.2,0.1,0.2,0.2
					C11.3,10.1,11.2,10.2,11.1,10.2z M11.1,9.7c-0.1,0-0.1,0-0.1,0.1s0,0.1,0.1,0.1s0.1,0,0.1-0.1L11.1,9.7z"/>
			</g>
		</g>
	</g>
</g>
<g>
	<g>
		<g>
			<path class="st0" d="M12.8,9c0,0.1-0.1,0.2-0.2,0.2c-0.1,0-0.2-0.1-0.2-0.2c0-0.1,0.1-0.2,0.2-0.2C12.8,8.8,12.8,8.9,12.8,9z"/>
		</g>
		<g>
			<g>
				<path class="st0" d="M12.7,9.2c-0.1,0-0.2-0.1-0.2-0.2c0-0.1,0.1-0.2,0.2-0.2c0.1,0,0.2,0.1,0.2,0.2S12.8,9.2,12.7,9.2z
					 M12.7,8.9c-0.1,0-0.1,0-0.1,0.1s0,0.1,0.1,0.1s0.1,0,0.1-0.1S12.7,8.9,12.7,8.9z"/>
			</g>
		</g>
	</g>
</g>
<g>
	<g>
		<g>
			<path class="st0" d="M14.2,12.8c0,0.1-0.1,0.2-0.2,0.2c-0.1,0-0.2-0.1-0.2-0.2c0-0.1,0.1-0.2,0.2-0.2
				C14.1,12.6,14.2,12.7,14.2,12.8z"/>
		</g>
		<g>
			<g>
				<path class="st0" d="M14.1,13c-0.1,0-0.2-0.1-0.2-0.2c0-0.1,0.1-0.2,0.2-0.2c0.1,0,0.2,0.1,0.2,0.2S14.2,13,14.1,13z M14.1,12.7
					c-0.1,0-0.1,0-0.1,0.1s0,0.1,0.1,0.1s0.1,0,0.1-0.1C14.2,12.7,14.1,12.7,14.1,12.7z"/>
			</g>
		</g>
	</g>
</g>
<g>
	<g>
		<g>
			<path class="st0" d="M16.1,10.9c0,0.1-0.1,0.2-0.2,0.2s-0.2-0.1-0.2-0.2s0.1-0.2,0.2-0.2C16.1,10.8,16.1,10.8,16.1,10.9z"/>
		</g>
		<g>
			<g>
				<path class="st0" d="M16,11.2c-0.1,0-0.2-0.1-0.2-0.2c0-0.1,0.1-0.2,0.2-0.2c0.1,0,0.2,0.1,0.2,0.2C16.2,11.1,16.1,11.2,16,11.2
					z M16,10.8c-0.1,0-0.1,0-0.1,0.1s0,0.1,0.1,0.1s0.1,0,0.1-0.1L16,10.8z"/>
			</g>
		</g>
	</g>
</g>
<g>
	<g>
		<g>
			<path class="st0" d="M17.1,10.1c0,0.1-0.1,0.2-0.2,0.2s-0.2-0.1-0.2-0.2c0-0.1,0.1-0.2,0.2-0.2C17.1,9.8,17.1,9.9,17.1,10.1z"/>
		</g>
		<g>
			<g>
				<path class="st0" d="M17,10.3c-0.1,0-0.2-0.1-0.2-0.2c0-0.1,0.1-0.2,0.2-0.2s0.2,0.1,0.2,0.2S17.1,10.3,17,10.3z M17,9.9
					c-0.1,0-0.1,0-0.1,0.1s0,0.1,0.1,0.1s0.1,0,0.1-0.1S17,9.9,17,9.9z"/>
			</g>
		</g>
	</g>
</g>
<g>
	<g>
		<g>
			<path class="st0" d="M12.5,11.1c0,0.1-0.1,0.2-0.2,0.2c-0.1,0-0.2-0.1-0.2-0.2c0-0.1,0.1-0.2,0.2-0.2
				C12.4,10.9,12.5,11,12.5,11.1z"/>
		</g>
		<g>
			<g>
				<path class="st0" d="M12.3,11.3c-0.1,0-0.2-0.1-0.2-0.2c0-0.1,0.1-0.2,0.2-0.2s0.2,0.1,0.2,0.2C12.6,11.2,12.5,11.3,12.3,11.3z
					 M12.3,11c-0.1,0-0.1,0-0.1,0.1s0,0.1,0.1,0.1s0.1,0,0.1-0.1C12.4,11,12.4,11,12.3,11z"/>
			</g>
		</g>
	</g>
</g>
<g>
	<g>
		<path class="st0" d="M79,2.8c-0.1-0.5-0.4-1.3-1.3-1.3c-0.4,0-0.8,0.3-1.1,0.6c-0.2,0.3-0.3,0.7-0.3,1.1c0,0.6,0.2,1.1,0.5,1.5
			C77.1,5,77.5,5.4,78.3,6c0.8,0.7,1.2,1,1.5,1.4c0.3,0.5,0.6,1.1,0.6,2c0,0.7-0.2,1.4-0.6,2c-0.4,0.5-1,1.2-2.2,1.2
			c-1.7,0-2.5-1-2.7-2.3l1.2-0.1c0.2,0.6,0.5,1.4,1.5,1.4c0.6,0,1-0.4,1.2-0.8c0.2-0.3,0.3-0.8,0.3-1.3c0-0.6-0.2-1.1-0.5-1.4
			c-0.2-0.3-0.5-0.6-1.4-1.3c-0.9-0.7-1.2-1.1-1.6-1.5c-0.3-0.5-0.6-1.1-0.6-2c0-0.7,0.2-1.3,0.6-1.8c0.4-0.5,1.1-0.9,2-0.9
			c1.6,0,2.3,1,2.4,2.2L79,2.8z"/>
		<path class="st0" d="M88.2,8.1c0,2.9-0.9,4.3-2.7,4.3c-1.8,0-2.7-1.3-2.7-4.3c0-3.4,1.2-4.3,2.7-4.3C87,3.7,88.2,4.7,88.2,8.1
			L88.2,8.1z M85.5,11.6c0.9,0,1.5-1,1.5-3.6c0-2.8-0.7-3.6-1.5-3.6c-0.8,0-1.5,0.8-1.5,3.6C84,10.7,84.6,11.6,85.5,11.6L85.5,11.6z
			"/>
		<path class="st0" d="M91.3,12.2l0-11.4l1.2,0l0,11.4L91.3,12.2z"/>
		<path class="st0" d="M97,3.9l0,5.6c0,0.7,0,1.2,0.2,1.6c0.1,0.2,0.4,0.4,0.7,0.4c0.3,0,0.5-0.1,0.8-0.3c0.3-0.2,0.6-0.5,0.8-0.9
			l0-6.3l1.2,0l0,8.3l-1.2,0l0-1l-0.1,0c-0.2,0.3-0.5,0.6-0.8,0.8c-0.4,0.2-0.8,0.4-1.2,0.4c-0.5,0-1-0.2-1.3-0.5
			c-0.3-0.4-0.4-0.9-0.4-1.9l0-6.1L97,3.9z"/>
		<path class="st0" d="M103.9,2.1l1.1,0l0,1.8l1.3,0l0,0.8l-1.3,0l0,4.8c0,1.4,0.3,2.1,0.8,2.1c0.3,0,0.5-0.1,0.7-0.3l0.2,0.8
			c-0.3,0.1-0.6,0.3-1.1,0.3c-1.1,0-1.7-0.7-1.7-2.5l0-5.2l-0.7,0l0-0.8l0.7,0L103.9,2.1z"/>
		<path class="st0" d="M109.2,2.2l0-1.4l1.2,0l0,1.4L109.2,2.2z M110.4,12.2l-1.2,0l0-8.3l1.2,0L110.4,12.2z"/>
		<path class="st0" d="M118.8,8.1c0,2.9-0.9,4.3-2.7,4.3c-1.8,0-2.7-1.3-2.7-4.3c0-3.4,1.2-4.3,2.7-4.3
			C117.6,3.7,118.8,4.7,118.8,8.1L118.8,8.1z M116.1,11.6c0.9,0,1.5-1,1.5-3.6c0-2.8-0.7-3.6-1.5-3.6c-0.8,0-1.5,0.8-1.5,3.6
			C114.6,10.8,115.2,11.6,116.1,11.6L116.1,11.6z"/>
		<path class="st0" d="M125.3,12.2l0-5.7c0-0.7,0-1.2-0.2-1.5c-0.1-0.2-0.3-0.4-0.7-0.4c-0.3,0-0.5,0.1-0.8,0.3
			c-0.3,0.2-0.6,0.5-0.9,0.9l0,6.3l-1.2,0l0-8.3l1.2,0l0,0.9l0.1,0c0.3-0.3,0.6-0.6,0.9-0.8c0.3-0.2,0.7-0.4,1.1-0.4
			c0.5,0,1,0.2,1.3,0.5c0.3,0.4,0.4,0.9,0.4,1.9l0,6.1L125.3,12.2z"/>
		<path class="st0" d="M132.5,5.3c-0.1-0.4-0.5-0.9-1.1-0.9c-0.3,0-0.6,0.1-0.8,0.3c-0.2,0.2-0.3,0.5-0.3,0.9c0,0.3,0.1,0.7,0.3,0.9
			c0.2,0.3,0.5,0.5,1.2,0.9c0.8,0.4,1.2,0.7,1.5,1.1c0.2,0.3,0.4,0.8,0.4,1.4c0,0.7-0.2,1.3-0.6,1.8c-0.4,0.4-1,0.7-1.8,0.7
			c-0.6,0-1.1-0.1-1.5-0.4c-0.4-0.2-0.7-0.7-0.8-1.2l1.1-0.1c0.1,0.6,0.6,1,1.2,1c0.3,0,0.7-0.1,0.9-0.4c0.2-0.2,0.3-0.6,0.3-1.2
			c0-0.3-0.1-0.7-0.3-1c-0.2-0.4-0.6-0.6-1.3-0.9c-0.7-0.4-1.1-0.7-1.4-1.1c-0.3-0.4-0.4-0.8-0.4-1.3c0-0.7,0.2-1.2,0.6-1.5
			c0.4-0.3,0.9-0.5,1.6-0.5c0.6,0,1.1,0.2,1.5,0.5c0.3,0.3,0.5,0.6,0.6,1.1L132.5,5.3z"/>
	</g>
	<g>
		<path class="st0" d="M31.7,5.8l0,0.9l-2.3,0l0,4.6l3,0l0,0.9l-4.2,0l0-11.4l4.1,0l0,0.9l-2.9,0l0,4.1L31.7,5.8z"/>
		<path class="st0" d="M38.9,12.3l0-5.7c0-0.7,0-1.2-0.2-1.5c-0.1-0.2-0.3-0.4-0.7-0.4c-0.3,0-0.5,0.1-0.8,0.3
			c-0.3,0.2-0.6,0.5-0.9,0.9l0,6.3l-1.2,0l0-8.3l1.2,0l0,0.9l0.1,0c0.3-0.3,0.6-0.6,0.9-0.8c0.3-0.2,0.7-0.4,1.1-0.4
			c0.5,0,1,0.2,1.3,0.6c0.3,0.4,0.4,0.9,0.4,1.9l0,6.1L38.9,12.3z"/>
		<path class="st0" d="M43.9,8.3c0,2.7,0.8,3.4,1.6,3.4c0.7,0,1.1-0.5,1.4-1.5l1.2,0.1c-0.1,0.5-0.4,1.1-0.8,1.5
			c-0.4,0.4-1,0.7-1.8,0.7c-0.8,0-1.5-0.2-2-0.9C43,10.8,42.7,9.7,42.7,8c0-1.5,0.3-2.7,0.8-3.4c0.5-0.6,1.1-0.9,1.9-0.9
			c0.7,0,1.3,0.3,1.8,0.9c0.6,0.8,0.8,2,0.8,3.6L43.9,8.3z M46.9,7.6c-0.1-2.1-0.7-3.1-1.4-3.1c-0.7,0-1.5,0.6-1.5,3.1L46.9,7.6z"/>
		<path class="st0" d="M52,4.8c0.2-0.3,0.4-0.5,0.7-0.7c0.3-0.2,0.5-0.3,0.9-0.3c0.2,0,0.4,0,0.5,0.1c0.1,0,0.2,0.1,0.4,0.2l-0.1,1
			c-0.1-0.1-0.2-0.2-0.3-0.2c-0.1-0.1-0.3-0.1-0.5-0.1c-0.2,0-0.5,0.1-0.8,0.4C52.5,5.3,52.3,5.6,52,6l0,6.3l-1.2,0l0-8.3L52,4
			L52,4.8L52,4.8z"/>
		<path class="st0" d="M60.7,4l1.2,0l0,8.1c0,1.7-0.2,2.6-0.6,3.4c-0.4,0.6-1.1,0.9-1.9,0.9c-0.6,0-1.1-0.2-1.6-0.5
			c-0.4-0.3-0.7-0.8-0.9-1.5l1.2-0.1c0.1,0.5,0.2,0.8,0.4,1c0.2,0.3,0.5,0.3,0.8,0.3c0.4,0,0.8-0.2,1-0.6c0.3-0.5,0.4-1.3,0.4-2.8
			l0-0.4l0,0c-0.3,0.3-0.8,0.7-1.6,0.7c-1.5,0-2.4-1.4-2.4-4.3c0-3,0.9-4.4,2.5-4.4c0.6,0,1.2,0.3,1.5,0.8l0,0L60.7,4z M57.9,8.2
			c0,2.1,0.6,3.4,1.5,3.4c0.6,0,1-0.4,1.3-0.9l0-5.1c-0.3-0.5-0.7-0.9-1.3-0.9C58.4,4.7,57.9,5.8,57.9,8.2L57.9,8.2z"/>
		<path class="st0" d="M67.4,13.7c-0.2,0.7-0.4,1.5-0.8,1.9c-0.3,0.4-0.8,0.7-1.4,0.7c-0.3,0-0.5,0-0.7-0.1
			c-0.2-0.1-0.4-0.1-0.5-0.2l0.3-0.8c0.1,0.1,0.2,0.2,0.3,0.2c0.1,0.1,0.3,0.1,0.5,0.1c0.3,0,0.5-0.2,0.7-0.5
			c0.2-0.3,0.3-0.8,0.4-1.4l0.3-1.8L64.2,4l1.3,0l0.8,3.2c0.3,1,0.6,2.1,0.8,3.3l0.1,0c0.2-1.3,0.4-2.3,0.6-3.3L68.3,4l1.2,0
			L67.4,13.7z"/>
	</g>
</g>
</svg>
