<svg width="138" height="36" viewBox="0 0 138 36" fill="none" xmlns="http://www.w3.org/2000/svg">
<g clip-path="url(#clip0_454_139)">
<path d="M18.4057 27.2667H23.92V25.6393H18.4057V22.4332H24.4808V20.8058H16.6033V32.4114H24.6721V30.784H18.4057V27.2667Z" fill="#00416E"/>
<path d="M32.8122 24.9812C32.5205 24.6829 32.1574 24.4495 31.7165 24.2809C31.2789 24.1124 30.7796 24.0281 30.2188 24.0281C29.8557 24.0281 29.5283 24.0735 29.2301 24.161C28.9318 24.2485 28.6725 24.3523 28.452 24.4754C28.2316 24.5986 28.0468 24.7283 27.9009 24.8677C27.755 25.0071 27.6481 25.1303 27.5767 25.234L27.4373 24.1999H25.9656V32.4113H27.6643L27.6999 27.7885C27.6999 27.4514 27.7615 27.1467 27.8847 26.8776C28.0079 26.6085 28.1732 26.3816 28.384 26.1936C28.5947 26.0056 28.8346 25.8662 29.1004 25.7722C29.3695 25.6781 29.6547 25.6328 29.9595 25.6328C30.6013 25.6328 31.1071 25.8208 31.4734 26.1936C31.8397 26.5664 32.0245 27.098 32.0245 27.7853V32.4081H33.7037V27.419C33.7037 26.9295 33.6292 26.4724 33.4768 26.0542C33.3244 25.6328 33.104 25.2762 32.8122 24.9779V24.9812Z" fill="#00416E"/>
<path d="M42.0643 25.1659C41.698 24.8029 41.2604 24.5241 40.7514 24.3263C40.2424 24.1286 39.6816 24.0281 39.0624 24.0281C38.3752 24.0281 37.769 24.1513 37.2503 24.3944C36.7316 24.6408 36.2972 24.9617 35.9471 25.3669C35.597 25.7689 35.3344 26.2292 35.1593 26.7415C34.9843 27.2537 34.8967 27.7821 34.8967 28.317C34.8967 28.8519 34.9843 29.377 35.1593 29.8827C35.3344 30.3917 35.5905 30.8456 35.9309 31.2475C36.268 31.6495 36.6992 31.9737 37.2179 32.2201C37.7365 32.4665 38.3363 32.5864 39.0138 32.5864C40.0058 32.5864 40.8649 32.34 41.5878 31.8505C42.3107 31.361 42.8132 30.6899 43.092 29.8374H41.2701C41.0496 30.2231 40.7611 30.5117 40.411 30.7029C40.0609 30.8942 39.6459 30.9914 39.1694 30.9914C38.748 30.9914 38.3817 30.9234 38.0672 30.7904C37.7527 30.6575 37.4837 30.4695 37.2632 30.2296C37.0428 29.9897 36.8742 29.7044 36.764 29.3705C36.7024 29.1858 36.6603 28.988 36.6311 28.7838H43.16C43.1827 28.6898 43.1989 28.5925 43.2022 28.4855C43.2054 28.3786 43.2119 28.2651 43.2119 28.1354C43.2119 27.5292 43.1114 26.9716 42.9137 26.4627C42.7159 25.9537 42.4339 25.5193 42.0643 25.1595V25.1659ZM36.67 27.5292C36.6927 27.419 36.7186 27.3088 36.751 27.205C36.8548 26.8711 37.0104 26.5794 37.2146 26.3297C37.4188 26.0801 37.6749 25.8824 37.9862 25.743C38.2941 25.6036 38.654 25.5323 39.0624 25.5323C39.3412 25.5323 39.6233 25.5744 39.9021 25.6652C40.1808 25.7527 40.4369 25.8824 40.6639 26.051C40.8908 26.2195 41.0788 26.4302 41.2247 26.6799C41.3706 26.9295 41.4613 27.2148 41.497 27.5292H36.67Z" fill="#00416E"/>
<path d="M48.8137 24.0281C48.1589 24.0281 47.6045 24.1804 47.1507 24.4819C46.6968 24.7867 46.3629 25.1984 46.1522 25.7235L45.9934 24.1999H44.5054V32.4113H46.2041V28.3494C46.2041 27.9279 46.2754 27.5487 46.4148 27.2115C46.5542 26.8744 46.7519 26.5858 47.0015 26.346C47.2512 26.1061 47.5494 25.9213 47.893 25.7851C48.2367 25.649 48.6127 25.5841 49.0212 25.5841C49.0795 25.5841 49.1444 25.5841 49.2124 25.5939C49.2838 25.6003 49.3356 25.6101 49.3713 25.6198V24.0962C49.3129 24.0735 49.2351 24.054 49.1346 24.0443C49.0341 24.0346 48.9272 24.0281 48.8105 24.0281H48.8137Z" fill="#00416E"/>
<path d="M56.4806 25.3216C56.1759 24.9358 55.7901 24.6246 55.3168 24.3847C54.8435 24.1448 54.2568 24.0248 53.5565 24.0248C52.973 24.0248 52.4316 24.1286 51.9292 24.3328C51.4267 24.537 50.9891 24.8256 50.6162 25.1984C50.2434 25.5712 49.9517 26.0185 49.741 26.5372C49.5302 27.0559 49.4265 27.633 49.4265 28.2619C49.4265 28.8908 49.5302 29.4743 49.741 30.0027C49.9517 30.5344 50.2434 30.9882 50.6162 31.3675C50.9891 31.7468 51.4267 32.045 51.9292 32.259C52.4316 32.4762 52.973 32.5832 53.5565 32.5832C54.2568 32.5832 54.8468 32.46 55.3233 32.2168C55.7999 31.9737 56.1856 31.6625 56.4774 31.2897V31.8667C56.4774 32.6966 56.2343 33.3385 55.7512 33.7923C55.2682 34.2462 54.6458 34.4764 53.8872 34.4764C53.3393 34.4764 52.8401 34.3532 52.3895 34.11C51.9389 33.8669 51.6277 33.5038 51.4526 33.024H49.7183C49.835 33.4909 50.0165 33.9091 50.2597 34.2754C50.5028 34.6417 50.8043 34.9562 51.1609 35.2123C51.5175 35.4684 51.9259 35.6629 52.3863 35.799C52.8466 35.9319 53.3458 36 53.884 36C54.5485 36 55.1483 35.8995 55.6799 35.7018C56.2116 35.504 56.6589 35.2155 57.0285 34.8362C57.3948 34.4569 57.6801 33.9998 57.8779 33.4617C58.0756 32.9236 58.1761 32.3173 58.1761 31.6398V24.1999H56.6881L56.4774 25.3216H56.4806ZM56.2634 29.3479C56.1305 29.685 55.9425 29.98 55.7026 30.2329C55.4627 30.4825 55.1807 30.6867 54.8533 30.8358C54.5258 30.9882 54.166 31.0628 53.7673 31.0628C53.3685 31.0628 53.0087 30.9882 52.6813 30.8358C52.3538 30.6835 52.0783 30.4825 51.8514 30.2329C51.6244 29.9832 51.4461 29.6882 51.3165 29.3479C51.1868 29.0107 51.1252 28.6476 51.1252 28.2619C51.1252 27.8761 51.19 27.5357 51.3165 27.2018C51.4461 26.8679 51.6244 26.5794 51.8514 26.3362C52.0783 26.0899 52.3571 25.8986 52.6813 25.7592C53.0087 25.6198 53.3685 25.5485 53.7673 25.5485C54.166 25.5485 54.5096 25.6198 54.8435 25.7592C55.1774 25.8986 55.4627 26.0931 55.7026 26.3362C55.9425 26.5826 56.1273 26.8711 56.2634 27.2018C56.3964 27.5357 56.4644 27.8891 56.4644 28.2619C56.4644 28.6347 56.3964 29.0075 56.2634 29.3479Z" fill="#00416E"/>
<path d="M63.3435 30.6737L60.8408 24.1999H58.967L62.452 32.5313L62.2769 33.0046C62.0889 33.4844 61.8652 33.8539 61.6026 34.1165C61.34 34.3791 60.9283 34.5088 60.3675 34.5088C60.1471 34.5088 59.9201 34.4893 59.6932 34.4472C59.4663 34.405 59.2945 34.3564 59.1778 34.2981L59.1616 35.6985C59.2426 35.7342 59.3852 35.7925 59.5895 35.8736C59.7937 35.9546 60.0757 35.9968 60.4388 35.9968C60.9413 35.9968 61.366 35.9352 61.7161 35.812C62.0662 35.6888 62.3709 35.517 62.627 35.2965C62.8831 35.0761 63.1068 34.807 63.2916 34.4926C63.4796 34.1781 63.6547 33.8345 63.8168 33.4584L67.7393 24.1967H65.885L63.3467 30.6705L63.3435 30.6737Z" fill="#00416E"/>
<path d="M78.486 26.6021C78.0905 26.3557 77.6496 26.1612 77.1633 26.0153C76.6803 25.8694 76.1973 25.743 75.7175 25.6392C75.4841 25.5809 75.2053 25.5161 74.8843 25.448C74.5634 25.3767 74.2587 25.2762 73.9734 25.1433C73.6881 25.0103 73.4417 24.8385 73.2375 24.6343C73.0333 24.4301 72.9295 24.1642 72.9295 23.8368C72.9295 23.5677 72.9944 23.3311 73.1208 23.1269C73.2505 22.9226 73.4223 22.7573 73.6363 22.6276C73.8535 22.498 74.0998 22.4039 74.3786 22.3391C74.6574 22.2743 74.9492 22.2419 75.2539 22.2419C75.5586 22.2419 75.8698 22.2808 76.1551 22.3553C76.4404 22.4299 76.6933 22.5433 76.9072 22.6957C77.1244 22.8481 77.2962 23.0361 77.4227 23.263C77.5491 23.4899 77.6204 23.7558 77.6334 24.0605H79.4553C79.4326 23.5353 79.3224 23.0588 79.1214 22.6341C78.9236 22.2094 78.6481 21.8464 78.298 21.5481C77.9478 21.2499 77.5199 21.0229 77.011 20.8641C76.502 20.7052 75.9347 20.6274 75.3025 20.6274C74.6704 20.6274 74.0966 20.702 73.5779 20.8446C73.0592 20.9905 72.6151 21.2045 72.2488 21.4833C71.8825 21.7621 71.5972 22.1057 71.3994 22.5077C71.2017 22.9097 71.1012 23.37 71.1012 23.8822C71.1012 24.4787 71.2211 24.965 71.461 25.3442C71.7009 25.7235 72.0089 26.0315 72.3882 26.2617C72.7675 26.4951 73.1921 26.6831 73.6654 26.8225C74.1387 26.9619 74.6088 27.0851 75.0756 27.1888C75.3317 27.2472 75.6235 27.3152 75.9509 27.3898C76.2783 27.4644 76.5895 27.5746 76.8878 27.714C77.186 27.8534 77.4356 28.0317 77.6399 28.2489C77.8441 28.4661 77.9478 28.7481 77.9478 29.0982C77.9478 29.39 77.8765 29.6493 77.7371 29.8763C77.5977 30.1032 77.4129 30.2977 77.186 30.4533C76.9591 30.6121 76.6933 30.7289 76.3885 30.8034C76.0838 30.878 75.7694 30.9169 75.4419 30.9169C75.0789 30.9169 74.7417 30.8747 74.4273 30.784C74.1128 30.6964 73.8308 30.5668 73.5876 30.3917C73.3445 30.2167 73.1467 29.9995 73.0009 29.7434C72.855 29.4872 72.7772 29.1955 72.7642 28.8681H70.9099C70.9326 29.4386 71.0623 29.9573 71.2957 30.4176C71.5291 30.878 71.8403 31.2702 72.2326 31.5912C72.6248 31.9121 73.0916 32.1585 73.6427 32.3271C74.1906 32.4956 74.7936 32.5799 75.4452 32.5799C76.0417 32.5799 76.6025 32.5054 77.1341 32.353C77.6658 32.2006 78.1294 31.9769 78.5249 31.6787C78.9204 31.3805 79.2348 31.0109 79.4618 30.5668C79.6887 30.1226 79.8021 29.6169 79.8021 29.0431C79.8021 28.4369 79.679 27.9377 79.4358 27.5454C79.1927 27.1532 78.8685 26.8355 78.473 26.5923L78.486 26.6021Z" fill="#00416E"/>
<path d="M87.9551 25.2697C87.5693 24.8839 87.1122 24.5824 86.5805 24.3587C86.0489 24.1383 85.4686 24.0248 84.8397 24.0248C84.2108 24.0248 83.6273 24.1351 83.0989 24.3587C82.5672 24.5792 82.1101 24.8839 81.7243 25.2697C81.3386 25.6555 81.0371 26.1061 80.8134 26.628C80.593 27.1467 80.4795 27.7108 80.4795 28.317C80.4795 28.9232 80.5897 29.471 80.8134 29.9897C81.0338 30.5084 81.3386 30.9623 81.7243 31.3448C82.1101 31.7273 82.5672 32.0321 83.0989 32.2557C83.6305 32.4762 84.2108 32.5896 84.8397 32.5896C85.4686 32.5896 86.0521 32.4794 86.5805 32.2557C87.1122 32.0353 87.5693 31.7306 87.9551 31.3448C88.3408 30.959 88.6423 30.5084 88.866 29.9897C89.0864 29.471 89.1999 28.9135 89.1999 28.317C89.1999 27.7205 89.0897 27.1467 88.866 26.628C88.6423 26.1093 88.3408 25.6555 87.9551 25.2697ZM87.3002 29.3673C87.1673 29.6947 86.9825 29.9768 86.7491 30.2167C86.5157 30.4565 86.2369 30.6446 85.9095 30.784C85.5821 30.9234 85.2255 30.9947 84.8429 30.9947C84.4604 30.9947 84.1006 30.9234 83.7764 30.784C83.449 30.6446 83.1702 30.4533 82.9368 30.2167C82.7034 29.9768 82.5186 29.6947 82.3857 29.3673C82.2528 29.0399 82.1847 28.6898 82.1847 28.317C82.1847 27.9442 82.2528 27.5746 82.3857 27.2504C82.5186 26.9262 82.7034 26.641 82.9368 26.4011C83.1702 26.1612 83.449 25.9732 83.7764 25.8338C84.1038 25.6944 84.4604 25.623 84.8429 25.623C85.2255 25.623 85.5853 25.6944 85.9095 25.8338C86.2337 25.9732 86.5157 26.1644 86.7491 26.4011C86.9825 26.641 87.1673 26.923 87.3002 27.2504C87.4331 27.5778 87.5012 27.9344 87.5012 28.317C87.5012 28.6995 87.4331 29.0399 87.3002 29.3673Z" fill="#00416E"/>
<path d="M92.176 20.3681H90.4773V32.4113H92.176V20.3681Z" fill="#00416E"/>
<path d="M99.7358 28.8422C99.7358 29.4711 99.5477 29.9898 99.1749 30.3918C98.8021 30.7937 98.3061 30.9947 97.687 30.9947C97.0678 30.9947 96.5718 30.7937 96.199 30.3918C95.8262 29.9898 95.6381 29.4743 95.6381 28.8422V24.2032H93.9395V29.121C93.9395 29.6332 94.0302 30.1032 94.2118 30.5312C94.3933 30.9558 94.6494 31.3222 94.9833 31.6269C95.3172 31.9316 95.7095 32.1683 96.1633 32.3368C96.6172 32.5054 97.1261 32.5897 97.687 32.5897C98.2478 32.5897 98.7405 32.5054 99.2009 32.3368C99.6612 32.1683 100.057 31.9284 100.384 31.6204C100.712 31.3124 100.964 30.9396 101.146 30.5085C101.327 30.0773 101.418 29.604 101.418 29.0918V24.2064H99.739V28.8454L99.7358 28.8422Z" fill="#00416E"/>
<path d="M105.338 21.5417L103.691 21.8918V24.2032H102.187V25.6393H103.675V29.5781C103.675 30.1032 103.749 30.5571 103.901 30.9364C104.054 31.3157 104.265 31.6269 104.53 31.8733C104.799 32.1196 105.127 32.2979 105.509 32.4146C105.895 32.5313 106.32 32.5897 106.787 32.5897C106.949 32.5897 107.117 32.58 107.286 32.5638C107.454 32.5476 107.61 32.5216 107.749 32.486V30.998C107.655 31.0207 107.555 31.0401 107.441 31.0499C107.331 31.0628 107.228 31.0661 107.137 31.0661C106.612 31.0661 106.184 30.9623 105.85 30.7516C105.516 30.5409 105.351 30.1389 105.351 29.5424V25.6393H108.028V24.2032H105.331V21.5417H105.338Z" fill="#00416E"/>
<path d="M110.8 24.2032H109.101V32.4146H110.8V24.2032Z" fill="#00416E"/>
<path d="M110.712 20.702C110.618 20.608 110.508 20.5367 110.379 20.4848C110.249 20.433 110.109 20.407 109.957 20.407C109.805 20.407 109.665 20.433 109.536 20.4848C109.406 20.5367 109.296 20.6113 109.202 20.702C109.108 20.7961 109.036 20.9063 108.985 21.0359C108.933 21.1656 108.907 21.305 108.907 21.4574C108.907 21.6097 108.933 21.7491 108.985 21.8788C109.036 22.0085 109.111 22.1187 109.202 22.2127C109.293 22.3067 109.406 22.378 109.536 22.4299C109.665 22.4818 109.805 22.5077 109.957 22.5077C110.109 22.5077 110.249 22.4818 110.379 22.4299C110.508 22.378 110.618 22.3035 110.712 22.2127C110.806 22.1187 110.878 22.0085 110.933 21.8788C110.985 21.7491 111.011 21.6097 111.011 21.4574C111.011 21.305 110.985 21.1656 110.933 21.0359C110.881 20.9063 110.806 20.7961 110.712 20.702Z" fill="#00416E"/>
<path d="M119.553 25.2697C119.167 24.8839 118.71 24.5824 118.178 24.3587C117.647 24.1383 117.066 24.0248 116.437 24.0248C115.808 24.0248 115.225 24.1351 114.697 24.3587C114.165 24.5792 113.708 24.8839 113.322 25.2697C112.936 25.6555 112.635 26.1061 112.411 26.628C112.191 27.1467 112.077 27.7108 112.077 28.317C112.077 28.9232 112.187 29.471 112.411 29.9897C112.631 30.5084 112.936 30.9623 113.322 31.3448C113.708 31.7306 114.165 32.0321 114.697 32.2557C115.228 32.4762 115.808 32.5896 116.437 32.5896C117.066 32.5896 117.647 32.4794 118.178 32.2557C118.71 32.0353 119.167 31.7306 119.553 31.3448C119.938 30.959 120.24 30.5084 120.464 29.9897C120.684 29.471 120.798 28.9135 120.798 28.317C120.798 27.7205 120.687 27.1467 120.464 26.628C120.243 26.1093 119.938 25.6555 119.553 25.2697ZM118.898 29.3673C118.762 29.6947 118.58 29.9768 118.347 30.2167C118.113 30.4565 117.835 30.6446 117.507 30.784C117.18 30.9234 116.823 30.9947 116.441 30.9947C116.058 30.9947 115.698 30.9234 115.374 30.784C115.047 30.6446 114.768 30.4533 114.534 30.2167C114.301 29.98 114.116 29.6947 113.983 29.3673C113.85 29.0399 113.782 28.6898 113.782 28.317C113.782 27.9442 113.85 27.5746 113.983 27.2504C114.116 26.9262 114.301 26.641 114.534 26.4011C114.768 26.1612 115.047 25.9732 115.374 25.8338C115.701 25.6944 116.058 25.623 116.441 25.623C116.823 25.623 117.183 25.6944 117.507 25.8338C117.835 25.9732 118.113 26.1644 118.347 26.4011C118.58 26.641 118.765 26.923 118.898 27.2504C119.031 27.5778 119.099 27.9344 119.099 28.317C119.099 28.6995 119.031 29.0399 118.898 29.3673Z" fill="#00416E"/>
<path d="M128.918 24.9812C128.626 24.6829 128.263 24.4495 127.822 24.2809C127.385 24.1124 126.886 24.0281 126.325 24.0281C125.962 24.0281 125.634 24.0735 125.336 24.161C125.038 24.2485 124.778 24.3523 124.558 24.4754C124.338 24.5986 124.153 24.7283 124.007 24.8677C123.861 25.0071 123.754 25.1303 123.683 25.234L123.543 24.1999H122.072V32.4113H123.77L123.806 27.7885C123.806 27.4514 123.867 27.1467 123.991 26.8776C124.114 26.6085 124.279 26.3816 124.49 26.1936C124.701 26.0056 124.937 25.8662 125.206 25.7722C125.475 25.6781 125.761 25.6328 126.065 25.6328C126.707 25.6328 127.213 25.8208 127.579 26.1936C127.946 26.5664 128.13 27.098 128.13 27.7853V32.4081H129.81V27.419C129.81 26.9295 129.735 26.4724 129.583 26.0542C129.43 25.636 129.21 25.2762 128.918 24.9779V24.9812Z" fill="#00416E"/>
<path d="M137.512 28.7028C137.301 28.424 137.032 28.2003 136.708 28.0382C136.381 27.8761 136.021 27.7529 135.622 27.6719C135.227 27.5908 134.841 27.513 134.468 27.4449C134.176 27.3866 133.927 27.325 133.716 27.2602C133.505 27.1953 133.334 27.124 133.201 27.0397C133.068 26.9587 132.97 26.8711 132.912 26.7771C132.854 26.6831 132.825 26.5794 132.825 26.4627C132.825 26.3103 132.87 26.1774 132.957 26.0607C133.045 25.944 133.158 25.8435 133.298 25.7625C133.437 25.6814 133.599 25.6198 133.778 25.5777C133.959 25.5355 134.137 25.5161 134.313 25.5161C134.523 25.5161 134.727 25.5453 134.925 25.6036C135.123 25.662 135.305 25.743 135.467 25.85C135.629 25.957 135.765 26.0899 135.869 26.252C135.972 26.4141 136.037 26.6021 136.06 26.8128H137.671C137.658 26.346 137.558 25.9408 137.363 25.5971C137.172 25.2535 136.925 24.9682 136.627 24.738C136.329 24.5079 135.989 24.3393 135.603 24.2226C135.217 24.1059 134.815 24.0475 134.397 24.0475C134.001 24.0475 133.606 24.0962 133.214 24.1967C132.821 24.2972 132.474 24.4495 132.173 24.6602C131.868 24.871 131.625 25.1368 131.437 25.4577C131.249 25.7787 131.158 26.1612 131.158 26.6053C131.158 27.0494 131.246 27.3866 131.421 27.6557C131.596 27.9247 131.816 28.1387 132.085 28.304C132.354 28.4693 132.656 28.5893 132.996 28.6703C133.334 28.7514 133.661 28.8227 133.975 28.8811C134.28 28.9264 134.559 28.9815 134.815 29.0399C135.071 29.0983 135.295 29.1728 135.48 29.2571C135.668 29.3446 135.81 29.4516 135.907 29.5813C136.008 29.711 136.057 29.8666 136.057 30.0546C136.057 30.2296 136.014 30.382 135.927 30.5084C135.839 30.6381 135.723 30.7451 135.577 30.8326C135.431 30.9201 135.262 30.9882 135.068 31.0336C134.877 31.079 134.679 31.1049 134.481 31.1049C134.248 31.1049 134.024 31.0725 133.807 31.0077C133.59 30.9428 133.395 30.8488 133.22 30.7289C133.045 30.6057 132.899 30.4533 132.782 30.2653C132.666 30.0773 132.594 29.8633 132.572 29.6169H130.98C130.98 30.1065 131.071 30.5376 131.252 30.9137C131.434 31.2865 131.677 31.6009 131.988 31.8505C132.296 32.1002 132.653 32.2914 133.055 32.4178C133.457 32.5475 133.881 32.6091 134.325 32.6091C134.77 32.6091 135.185 32.5508 135.603 32.4341C136.024 32.3173 136.397 32.1423 136.724 31.9089C137.052 31.6755 137.318 31.387 137.522 31.0433C137.726 30.6997 137.83 30.2977 137.83 29.8439C137.83 29.3641 137.726 28.9848 137.515 28.706L137.512 28.7028Z" fill="#00416E"/>
<path d="M38.4136 4.88539C38.1575 4.68115 37.8787 4.5061 37.574 4.35373C36.9386 4.03928 36.1509 3.88043 35.2334 3.88043C34.4684 3.88043 33.7422 4.01659 33.0744 4.28566C32.4034 4.55797 31.8134 4.94374 31.3238 5.44297C30.8376 5.93897 30.4486 6.53546 30.173 7.21947C29.8975 7.90025 29.7581 8.66531 29.7581 9.48548C29.7581 10.3057 29.8975 11.074 30.173 11.7677C30.4486 12.4647 30.8376 13.0741 31.3206 13.5766C31.8069 14.0791 32.3936 14.4778 33.0647 14.7631C33.7357 15.0484 34.4651 15.1943 35.2302 15.1943C36.1476 15.1943 36.9354 15.0354 37.5708 14.721C37.8204 14.5978 38.4201 14.7761 38.7443 14.9349L38.8415 14.9836H41.3021V4.09763H38.485L38.4104 4.88863L38.4136 4.88539ZM37.5059 7.47233C37.7523 7.72519 37.9501 8.02992 38.0862 8.37355C38.2256 8.72042 38.2969 9.09647 38.2969 9.48548C38.2969 9.8745 38.2256 10.2765 38.0862 10.6331C37.9468 10.9864 37.7491 11.2976 37.5027 11.557C37.2531 11.8163 36.9516 12.0303 36.6047 12.1891C36.2643 12.3447 35.8818 12.4225 35.4701 12.4225C35.0584 12.4225 34.6856 12.3447 34.3614 12.1891C34.0307 12.0335 33.7422 11.8228 33.5088 11.5635C33.2722 11.3041 33.0841 10.9897 32.9512 10.6363C32.8151 10.2797 32.747 9.89395 32.747 9.48224C32.747 9.07053 32.8151 8.7107 32.948 8.36383C33.0809 8.01695 33.2689 7.71223 33.5023 7.45937C33.7357 7.20975 34.0178 7.012 34.3452 6.86612C34.6759 6.72348 35.0519 6.64892 35.4668 6.64892C35.8818 6.64892 36.2708 6.72348 36.6144 6.86612C36.9581 7.012 37.2563 7.21299 37.5027 7.46261L37.5059 7.47233Z" fill="#E63223"/>
<path d="M52.1492 5.17715C51.7505 4.76868 51.248 4.44774 50.658 4.22082C50.0744 3.99714 49.4099 3.88043 48.674 3.88043C48.1942 3.88043 47.7436 3.94203 47.3449 4.05873C46.9526 4.17543 46.6025 4.31483 46.3075 4.48016C46.1195 4.5839 45.9509 4.69412 45.8018 4.80758L45.7045 4.09115H43.0527V14.9771H46.0806V8.90845C46.0806 8.56806 46.1422 8.26009 46.2621 7.9975C46.3853 7.72843 46.5474 7.50799 46.7549 7.32321C46.9656 7.13519 47.199 6.99903 47.4713 6.90502C47.7468 6.80777 48.0483 6.75914 48.3595 6.75914C49.0144 6.75914 49.5071 6.93744 49.867 7.30052C50.2268 7.66684 50.4019 8.19201 50.4019 8.90845V14.9771H53.3649V8.46108C53.3649 7.81596 53.2611 7.20326 53.0601 6.64568C52.8559 6.07512 52.5479 5.58237 52.1492 5.17391V5.17715Z" fill="#E63223"/>
<path d="M63.0738 4.88539C62.8177 4.68115 62.5389 4.5061 62.2342 4.35373C61.5988 4.03928 60.811 3.88043 59.8936 3.88043C59.1285 3.88043 58.4024 4.01659 57.7346 4.28566C57.0635 4.55797 56.4735 4.94374 55.984 5.44297C55.4977 5.93897 55.112 6.53546 54.8332 7.21947C54.5576 7.90349 54.4182 8.66531 54.4182 9.48548C54.4182 10.3057 54.5576 11.074 54.8332 11.7677C55.1087 12.4647 55.4977 13.0741 55.9808 13.5766C56.467 14.0791 57.0538 14.4778 57.7248 14.7631C58.3959 15.0484 59.1253 15.1943 59.8904 15.1943C60.8078 15.1943 61.5955 15.0354 62.2309 14.721C62.4805 14.5978 63.0803 14.7761 63.4045 14.9349L63.5017 14.9836H65.9622V4.09763H63.1451L63.0705 4.88863L63.0738 4.88539ZM62.1661 7.46909C62.4125 7.72195 62.6102 8.02668 62.7464 8.37031C62.8858 8.71718 62.9571 9.09323 62.9571 9.48224C62.9571 9.87126 62.8858 10.2732 62.7464 10.6298C62.607 10.9832 62.4092 11.2944 62.1628 11.5537C61.9132 11.8131 61.6117 12.027 61.2649 12.1859C60.9245 12.3415 60.5419 12.4193 60.1302 12.4193C59.7185 12.4193 59.3457 12.3415 59.0216 12.1859C58.6909 12.0303 58.4024 11.8196 58.169 11.5602C57.9323 11.3009 57.7443 10.9864 57.6114 10.6331C57.4752 10.2765 57.4071 9.88746 57.4071 9.479C57.4071 9.07053 57.4752 8.70745 57.6081 8.36058C57.741 8.01371 57.9291 7.70898 58.1625 7.45612C58.3959 7.20651 58.6779 7.00876 59.0053 6.86288C59.3328 6.72024 59.7121 6.64568 60.127 6.64568C60.542 6.64568 60.931 6.72024 61.2746 6.86612C61.6182 7.012 61.9165 7.21299 62.1628 7.46261L62.1661 7.46909Z" fill="#E63223"/>
<path d="M78.8127 7.21946C78.5372 6.53545 78.1482 5.93896 77.6619 5.44296C77.1756 4.94697 76.5889 4.55796 75.9243 4.28889C75.263 4.01982 74.5401 3.88366 73.775 3.88366C72.8576 3.88366 72.0698 4.04575 71.4312 4.36993C71.1654 4.50609 70.919 4.65845 70.6888 4.82702V0H67.7031V14.9803H70.0729L70.1669 14.9382C70.5397 14.7631 71.1848 14.5848 71.4279 14.708C72.0666 15.0289 72.8543 15.1943 73.7718 15.1943C74.5401 15.1943 75.2662 15.0484 75.9308 14.7631C76.5953 14.4778 77.1756 14.0791 77.6619 13.5766C78.1482 13.0741 78.5372 12.4679 78.8127 11.7677C79.0883 11.0707 79.2277 10.3024 79.2277 9.48547C79.2277 8.66854 79.0883 7.90348 78.8127 7.21946ZM76.2647 9.48547C76.2647 9.89394 76.1966 10.283 76.0605 10.6395C75.9243 10.9929 75.7395 11.3074 75.5029 11.5667C75.2695 11.8228 74.9809 12.0335 74.6406 12.1891C74.3066 12.3447 73.9306 12.4225 73.5189 12.4225C73.1072 12.4225 72.7247 12.3447 72.3843 12.1891C72.0374 12.0303 71.7327 11.8196 71.4863 11.5602C71.2399 11.3009 71.0422 10.9897 70.9028 10.6363C70.7634 10.283 70.6921 9.89718 70.6921 9.48872C70.6921 9.08025 70.7634 8.72365 70.9028 8.37678C71.0422 8.02991 71.2367 7.72842 71.4863 7.47556C71.7327 7.2227 72.0309 7.02171 72.3745 6.87907C72.7182 6.73319 73.1039 6.66188 73.5221 6.66188C73.9403 6.66188 74.3196 6.73644 74.6568 6.87907C74.9907 7.02171 75.2792 7.2227 75.5094 7.46908C75.7428 7.72194 75.9308 8.02667 76.0637 8.37354C76.1998 8.72365 76.2679 9.0997 76.2679 9.49196L76.2647 9.48547Z" fill="#E63223"/>
<path d="M16.6033 14.9803H19.6797V8.73013H25.7354V14.9803H28.8118V0H25.7354V5.87088H19.6797V0H16.6033V14.9803Z" fill="#E63223"/>
<path d="M1.56117 5.87097H-0.215332V8.72699H1.56117V5.87097Z" fill="#E63223"/>
<path d="M13.5166 14.9804V11.9299C13.5166 11.3042 13.4226 10.7045 13.2476 10.1372C12.7937 8.67188 11.7985 7.44324 10.4953 6.6879C9.60054 6.16922 8.56317 5.87097 7.45772 5.87097H4.42017V8.72699H7.53552C8.13201 8.73995 8.68312 8.91825 9.15642 9.21325C9.7367 9.57633 10.1905 10.1177 10.4434 10.7628C10.586 11.1259 10.6671 11.5214 10.6671 11.9331H10.6736V14.9836H13.5199L13.5166 14.9804Z" fill="#E63223"/>
<path d="M7.54271 13.6967C8.56502 13.6967 9.39377 12.868 9.39377 11.8457C9.39377 10.8234 8.56502 9.99463 7.54271 9.99463C6.5204 9.99463 5.69165 10.8234 5.69165 11.8457C5.69165 12.868 6.5204 13.6967 7.54271 13.6967Z" fill="#00416E"/>
<path d="M7.62025 14.9804V14.9739C7.2053 14.9739 6.81304 14.8929 6.44996 14.7502C5.80485 14.4974 5.26347 14.0435 4.90039 13.4632C4.60539 12.9899 4.42709 12.4356 4.41412 11.8424V4.09448H1.55811V11.7646C1.55811 12.8732 1.85635 13.9106 2.37504 14.8021C3.13037 16.1053 4.35901 17.1005 5.8243 17.5544C6.39161 17.7294 6.99458 17.8235 7.61701 17.8235H10.6675V14.9804H7.61701H7.62025Z" fill="#00416E"/>
</g>
<defs>
<clipPath id="clip0_454_139">
<rect width="138" height="36" fill="white"/>
</clipPath>
</defs>
</svg>
