<svg width="170" height="49" viewBox="0 0 170 49" fill="none" xmlns="http://www.w3.org/2000/svg">
<path fill-rule="evenodd" clip-rule="evenodd" d="M0 0.0439993V25.084C2.00244 24.534 4.32907 24.191 7.12023 24.191C13.5278 24.191 18.0645 26.645 22.4509 29.017C26.9885 31.471 31.2751 33.79 37.9752 33.79C42.3023 33.79 45.048 32.833 47.4695 31.48V0.0429993L0 0.0439993Z" fill="#0077CC"/>
<path fill-rule="evenodd" clip-rule="evenodd" d="M19.6518 33.424C15.5678 31.214 12.0413 29.306 7.12023 29.306C4.13041 29.306 1.8957 29.767 0 30.5V47.993H47.4685V37.223C44.9749 38.217 41.9465 38.905 37.9752 38.905C29.7866 38.905 24.4029 35.993 19.6518 33.424Z" fill="#DD6611"/>
<path fill-rule="evenodd" clip-rule="evenodd" d="M37.9752 33.79C31.2741 33.79 26.9885 31.471 22.4509 29.017C18.0645 26.645 13.5278 24.191 7.12122 24.191C4.32808 24.191 2.00244 24.533 0 25.083V30.5C1.8957 29.767 4.13041 29.306 7.12023 29.306C12.0403 29.306 15.5678 31.215 19.6528 33.424C24.4029 35.993 29.7866 38.904 37.9752 38.904C41.9465 38.904 44.9749 38.217 47.4685 37.222V31.48C45.048 32.834 42.3013 33.79 37.9752 33.79Z" fill="#FFFFFE"/>
<path fill-rule="evenodd" clip-rule="evenodd" d="M64.3578 5.147C63.0216 5.115 61.622 5.147 60.2857 5.147V10.777H64.3578C67.4445 10.777 67.6036 5.179 64.3578 5.147ZM73.4271 21.683V22.519H67.062L63.2449 15.892H60.2848V22.519H54.5898V0H64.3578C73.1089 0.032 74.6992 10.68 69.0674 14.541L73.4271 21.683ZM94.1138 22.519H88.2923V13.479H81.4181V22.519H75.5956V0H81.4181V8.172H88.2913V0H94.1138V22.519ZM128.651 47.993H122.829V25.474H128.65V47.994M74.286 25.41H76.3221V47.993H70.5006V37.956L65.7593 42.975H65.1228L60.4142 37.956V47.993H54.5907V25.41H56.691L65.4085 35.19L74.286 25.41ZM89.0612 34.32L86.5478 40.24H91.6379L89.0612 34.32ZM93.4842 45.162H84.7015L83.3968 47.993H77.8284V47.156L87.8514 25.185H90.3026L100.356 47.156V47.993H94.7878L93.4842 45.162Z" fill="#112233"/>
<path fill-rule="evenodd" clip-rule="evenodd" d="M111.648 30.622C110.311 30.59 108.912 30.622 107.575 30.622V36.252H111.648C114.734 36.252 114.893 30.654 111.648 30.622ZM120.716 47.157V47.993H114.353L110.535 41.366H107.574V47.993H101.879V25.475H111.648C120.399 25.507 121.989 36.155 116.357 40.015L120.716 47.157ZM138.538 36.927V47.993H132.652V25.378H134.72L145.985 36.508V25.476H151.808V48.026H149.771L138.538 36.928" fill="#112233"/>
<path fill-rule="evenodd" clip-rule="evenodd" d="M169.713 30.622H161.472V33.806H169.045V38.921H161.472V42.878H170V47.993H155.809V25.474H169.713V30.622Z" fill="#112233"/>
</svg>
