<?xml version="1.0" encoding="UTF-8"?>
<svg id="Laag_1" xmlns="http://www.w3.org/2000/svg" version="1.1" viewBox="0 0 495.106 69.406">
  <!-- Generator: Adobe Illustrator 29.1.0, SVG Export Plug-In . SVG Version: 2.1.0 Build 142)  -->
  <defs>
    <style>
      .st0 {
        fill: #009edd;
      }

      .st1 {
        fill: #004e8c;
      }
    </style>
  </defs>
  <path class="st0" d="M4.602,20.333c-2.538,0-4.602,2.065-4.602,4.602s2.065,4.602,4.602,4.602,4.602-2.065,4.602-4.602-2.065-4.602-4.602-4.602Z"/>
  <path class="st1" d="M29.468,49.079c-.784.121-1.628.194-2.26.194-3.975,0-5.908-1.784-5.908-5.454v-15.044h8.102v-7.691h-8.102v-8.549h-8.596v31.737c0,7.984,4.578,12.563,12.561,12.563,1.627,0,3.641-.299,4.22-.39l.046-.007v-7.369l-.063.01Z"/>
  <path class="st1" d="M63.689,25.419c-3.12-3.344-7.523-5.112-12.732-5.112-10.006,0-17.551,7.907-17.551,18.393,0,5.079,1.786,9.744,5.029,13.136,3.322,3.474,7.999,5.387,13.17,5.387,6.979,0,12.925-3.396,15.148-8.651l.02-.048-6.916-3.393-.046-.023-.025.044c-1.174,2.057-3.536,4.509-8.117,4.509-2.505,0-4.713-.802-6.387-2.319-1.668-1.512-2.687-3.629-2.949-6.126h25.382l.012-.037c.377-1.127.456-2.571.456-3.583,0-4.747-1.596-9.072-4.493-12.178ZM42.534,34.628c.966-4.519,4.11-7.214,8.423-7.214,4.402,0,7.626,2.896,8.041,7.214h-16.463Z"/>
  <path class="st1" d="M122.261,24.033c-2.378-2.403-5.697-3.726-9.347-3.726-4.812,0-8.596,1.954-10.95,5.652-2.138-3.541-6.201-5.652-10.889-5.652-4.519,0-7.988,1.782-9.795,5.023v-4.247h-8.08v35.362h8.598v-20.727c0-2.238.642-4.133,1.857-5.48,1.208-1.34,2.901-2.048,4.894-2.048,2.023,0,3.724.7,4.917,2.023,1.198,1.331,1.832,3.234,1.832,5.504v20.727h8.598v-20.727c0-2.238.642-4.133,1.857-5.48,1.208-1.34,2.9-2.048,4.892-2.048,2.024,0,3.724.7,4.918,2.023,1.199,1.331,1.833,3.234,1.833,5.504v20.727h8.598v-22.735c0-3.808-1.326-7.245-3.734-9.678Z"/>
  <path class="st1" d="M163.841,25.637c-3.311-3.437-7.815-5.33-12.684-5.33-4.69,0-8.691,1.713-11.286,4.827v-4.05h-8.08v48.268s-.002.055-.002.055h8.597l-.003-16.255c2.557,2.627,6.353,4.071,10.708,4.071,10.19,0,17.875-7.935,17.875-18.457,0-5.035-1.82-9.697-5.126-13.129ZM160.046,38.766c0,2.969-.99,5.663-2.789,7.585-1.803,1.927-4.338,2.988-7.139,2.988-5.638,0-9.73-4.447-9.73-10.573s4.092-10.575,9.73-10.575c2.77,0,5.297,1.07,7.115,3.013,1.814,1.938,2.812,4.624,2.812,7.562Z"/>
  <path class="st0" d="M307.403,49.079c-.784.121-1.628.194-2.26.194-3.975,0-5.908-1.784-5.908-5.454v-15.044h8.102v-7.691h-8.102v-8.549h-8.596v31.737c0,7.984,4.578,12.563,12.56,12.563,1.627,0,3.642-.299,4.221-.39l.046-.007v-7.369l-.063.01Z"/>
  <path class="st0" d="M200.15,43.357l-.02.055c-1.388,3.767-4.488,5.927-8.503,5.927-5.526,0-9.538-4.447-9.538-10.573s4.011-10.575,9.538-10.575c3.863,0,7.122,2.246,8.503,5.863l.021.053,7.503-3.263.046-.02-.016-.048c-1.091-3.081-3.177-5.701-6.032-7.577-2.88-1.892-6.348-2.892-10.026-2.892-10.524,0-18.459,7.907-18.459,18.393,0,10.56,7.935,18.523,18.459,18.523,7.463,0,13.916-4.182,16.057-10.405l.016-.047-7.497-3.389-.053-.024Z"/>
  <path class="st0" d="M242.654,25.539c-3.466-3.374-8.154-5.232-13.202-5.232-5.099,0-9.816,1.858-13.282,5.232-3.505,3.412-5.435,8.11-5.435,13.227s1.939,9.807,5.46,13.226c3.474,3.373,8.183,5.231,13.258,5.231,5.03,0,9.71-1.849,13.176-5.207,3.532-3.421,5.477-8.126,5.477-13.25s-1.936-9.805-5.451-13.227ZM239.118,38.766c0,6.126-4.066,10.573-9.666,10.573-2.767,0-5.27-1.061-7.048-2.988-1.772-1.92-2.748-4.614-2.748-7.585,0-6.127,4.12-10.575,9.797-10.575,2.703,0,5.166,1.07,6.934,3.012,1.762,1.936,2.732,4.622,2.732,7.563Z"/>
  <path class="st0" d="M271.125,20.307c-4.465,0-8.069,1.808-9.925,4.969v-4.192h-8.08v35.362h8.598v-20.727c0-4.503,2.843-7.528,7.074-7.528,2.072,0,3.837.7,5.105,2.025,1.289,1.347,1.97,3.25,1.97,5.503v20.727h8.598v-22.735c0-7.892-5.485-13.404-13.34-13.404Z"/>
  <path class="st0" d="M331.241,20.694c-4.766,0-7.783,1.65-9.471,5.188v-4.799h-8.08v35.362h8.598v-19.689c0-5.203,3.059-8.435,7.982-8.435h3.1v-7.627h-2.128Z"/>
  <path class="st0" d="M367.128,25.539c-3.466-3.374-8.154-5.232-13.202-5.232-5.099,0-9.816,1.858-13.282,5.232-3.505,3.412-5.436,8.11-5.436,13.227s1.939,9.807,5.46,13.226c3.474,3.373,8.183,5.231,13.258,5.231,5.03,0,9.71-1.849,13.176-5.207,3.532-3.421,5.477-8.126,5.477-13.25s-1.936-9.805-5.451-13.227ZM363.592,38.766c0,6.126-4.066,10.573-9.666,10.573-2.767,0-5.27-1.061-7.048-2.988-1.772-1.92-2.748-4.614-2.748-7.585,0-6.127,4.12-10.575,9.797-10.575,2.703,0,5.166,1.07,6.934,3.012,1.762,1.936,2.732,4.622,2.732,7.563Z"/>
  <rect class="st0" x="377.596" y="12.535" width="8.598" height="43.911"/>
  <rect class="st1" x="405.783" width="3.32" height="68.981"/>
  <path class="st1" d="M475.889,5.751c-8.877,0-16.756,6.282-18.737,14.941-.32,1.41-.481,2.85-.481,4.283,0,1.326.139,2.656.412,3.952,1.853,8.846,9.761,15.265,18.806,15.265,10.597,0,19.217-8.621,19.217-19.218s-8.62-19.224-19.217-19.224ZM475.889,35.82c-5.991,0-10.848-4.857-10.848-10.848s4.857-10.848,10.848-10.848,10.848,4.857,10.848,10.848-4.857,10.848-10.848,10.848Z"/>
  <path class="st0" d="M475.889,20.37c-2.538,0-4.602,2.065-4.602,4.602s2.065,4.602,4.602,4.602,4.602-2.065,4.602-4.602-2.065-4.602-4.602-4.602Z"/>
  <path class="st1" d="M442.097,33.777c-1.419,0-2.817.19-4.157.564l.721-5.363h14.113l-.204-1.2c-.156-.919-.235-1.863-.235-2.804,0-1.031.093-2.053.275-3.038l.225-1.215h-21.197l-3.417,23.99-.02.141,7.198,1.624.365-.703c1.272-2.451,3.776-3.973,6.534-3.973,4.058,0,7.359,3.301,7.359,7.359s-3.301,7.354-7.359,7.354c-3.611,0-6.661-2.579-7.255-6.132l-.038-.231-7.975,2.845c.477,1.937,1.311,3.74,2.481,5.358,2.913,4.037,7.618,6.448,12.586,6.448,8.553,0,15.51-6.96,15.51-15.516s-6.958-15.51-15.51-15.51Z"/>
  <g>
    <path class="st1" d="M463.77,54.09l-1.71-4.655h-2.133l2.85,7.232-.134.307c-.106.239-.243.451-.411.636-.168.186-.446.278-.835.278-.141,0-.296-.013-.464-.04-.168-.027-.314-.058-.437-.093v1.63c.15.08.324.137.523.172.199.035.404.053.616.053.441,0,.841-.084,1.199-.252.358-.168.678-.42.961-.755.282-.336.521-.755.715-1.259l3.101-7.91h-2.133l-1.709,4.655Z"/>
    <path class="st1" d="M474.39,50.31c-.305-.326-.678-.581-1.12-.762-.442-.181-.95-.272-1.524-.272-.689,0-1.307.163-1.855.49-.548.327-.983.773-1.305,1.338-.323.565-.484,1.21-.484,1.934,0,.698.155,1.334.464,1.908.309.575.747,1.031,1.312,1.371.565.34,1.232.51,2.001.51.495,0,.949-.073,1.365-.219.415-.146.775-.351,1.08-.616.305-.265.528-.574.669-.927l-1.59-.755c-.142.247-.338.441-.59.583-.252.142-.554.212-.908.212-.389,0-.72-.086-.994-.258s-.477-.413-.609-.722c-.068-.159-.113-.332-.137-.517h5.066c.035-.097.06-.214.073-.351.013-.137.02-.276.02-.417,0-.504-.08-.969-.239-1.398s-.391-.806-.695-1.133ZM470.858,51.118c.247-.168.543-.252.888-.252.353,0,.652.086.895.258s.413.406.51.702c.034.103.052.212.064.325h-2.997c.023-.102.05-.2.085-.292.123-.327.309-.574.556-.742Z"/>
    <path class="st1" d="M481.313,49.607c-.468-.221-1.007-.331-1.617-.331-.512,0-.985.08-1.417.239s-.804.384-1.113.676c-.309.292-.535.641-.676,1.047l1.59.755c.124-.318.321-.574.59-.769.269-.194.581-.292.934-.292.371,0,.665.093.881.279s.325.415.325.689v.193l-2.001.323c-.574.089-1.053.239-1.437.451-.385.212-.669.475-.855.789-.186.314-.279.674-.279,1.08,0,.433.102.806.305,1.12.203.314.495.555.875.722.38.167.83.252,1.351.252.388,0,.742-.051,1.06-.152.318-.102.605-.256.861-.464.088-.071.169-.158.252-.242v.699h1.855v-4.77c0-.521-.13-.978-.391-1.371-.261-.393-.625-.7-1.093-.921ZM480.604,54.583c-.137.243-.329.435-.576.576-.248.141-.535.212-.861.212-.248,0-.455-.062-.623-.186-.168-.123-.252-.296-.252-.517,0-.239.075-.422.226-.55.15-.128.366-.219.649-.272l1.643-.293v.227c0,.292-.069.559-.206.802Z"/>
    <path class="st1" d="M486.805,49.681c-.279.165-.497.445-.656.837v-1.082h-1.855v7.234h1.988v-3.895c0-.539.15-.956.45-1.252s.694-.444,1.179-.444h.623v-1.723h-.424c-.503,0-.938.108-1.305.325Z"/>
    <path class="st1" d="M493.225,52.456l-1.153-.345c-.177-.053-.324-.11-.444-.172-.119-.062-.205-.133-.258-.212s-.08-.168-.08-.265c0-.186.073-.331.219-.437.146-.106.347-.159.603-.159.353,0,.669.091.947.272.279.181.47.422.576.722l1.471-.689c-.221-.601-.599-1.067-1.133-1.398s-1.155-.497-1.861-.497c-.539,0-1.016.095-1.431.285-.415.19-.738.453-.967.789-.23.336-.345.729-.345,1.179,0,.513.159.957.477,1.332.318.376.773.647,1.364.815l1.232.345c.159.044.292.097.398.159s.186.13.239.205c.053.075.079.165.079.271,0,.203-.075.362-.225.477s-.367.172-.649.172c-.389,0-.742-.11-1.06-.331s-.57-.525-.755-.914l-1.457.689c.212.636.612,1.142,1.199,1.517.587.375,1.279.563,2.073.563.565,0,1.056-.095,1.471-.285.415-.19.739-.453.974-.789.234-.335.351-.729.351-1.179,0-.521-.159-.961-.477-1.318s-.777-.625-1.378-.802Z"/>
  </g>
</svg>