<?xml version="1.0" encoding="utf-8"?>
<!-- Generator: Adobe Illustrator 26.5.0, SVG Export Plug-In . SVG Version: 6.00 Build 0)  -->
<svg version="1.1" id="Laag_1" xmlns="http://www.w3.org/2000/svg" xmlns:xlink="http://www.w3.org/1999/xlink" x="0px" y="0px"
	 viewBox="0 0 359.3 188.6" style="enable-background:new 0 0 359.3 188.6;" xml:space="preserve">
<style type="text/css">
	.st0{fill:#2662AD;}
	.st1{fill:#FFFFFF;}
</style>
<g>
	<path class="st0" d="M35.2,66c18.1,0,21.7,9.2,21.7,15.6c0,4.6-1.7,8.8-7.3,12c7.1,3.8,8.8,8,8.8,12.9c0,8.6-6.1,15.5-19.2,15.5
		H0.1V66H35.2z M24.9,88.2h0.6c5.4,0,7.4-1.5,7.4-5.5c0-3.1-1.5-5.4-6.5-5.4h-1.5C24.9,77.3,24.9,88.2,24.9,88.2z M24.9,109.7h0.8
		c5.7,0,7.9-1.6,7.9-5.8c0-3.7-1.7-6.3-6.9-6.3H25L24.9,109.7L24.9,109.7z"/>
	<path class="st0" d="M112.5,122H66V66h46.5v14H90.8v7h15.1v14H90.8v6.9h21.7V122z"/>
	<path class="st0" d="M156.7,66c14.1,0,20.4,8.4,20.4,16.8c0,5.2-2.3,9.5-6.4,12.4c6,6.8,9.7,16.1,10.8,26.8h-25.7
		c-1.1-14.9-4.2-20.8-10.9-20.8V122h-24.8V66H156.7z M144.9,88.3h0.7c4.5,0,6.7-1.7,6.7-5.3c0-2.4-1.2-5.6-5.9-5.6h-1.5V88.3z"/>
	<path class="st0" d="M212.4,84.7c9.2-0.7,12.9-8.6,12.9-18.7h25.3c0,13.4-3.3,21.9-11.1,27.9c7.4,5.7,11.8,14.7,12.6,28.1h-26.8
		c-0.6-13.2-5-20.2-13-20.5V122h-24.8V66h24.8v18.7H212.4z"/>
	<path class="st0" d="M305.3,122h-46.5V66h46.5v14h-21.7v7h15.1v14h-15.1v6.9h21.7V122z"/>
	<path class="st0" d="M312.7,66h24.8v42h21.7v14h-46.5V66z"/>
</g>
<g>
	<path class="st1" d="M18.3,188.6H0.4v-33.5c2.1,1.2,5.7,1.9,9.2,1.9c3.3,0,6.5-0.7,8.7-1.9V188.6z M13.2,145.5c2.8,0,5,2.2,5,4.8
		c0,2.7-2.2,4.9-5,4.9s-5.1-2.2-5.1-4.9C8.1,147.7,10.4,145.5,13.2,145.5z"/>
	<path class="st1" d="M42.7,159.4c3.2-3.1,6.4-4.5,10.8-4.5c5.9,0,12.6,2.4,12.6,13v20.8H49.2v-19.5c0-2.7-1.1-4.2-3.3-4.2
		c-0.9,0-2.3,0.5-3.2,1.1v22.6H24.9v-33.5h17.8C42.7,155.2,42.7,159.4,42.7,159.4z"/>
	<path class="st1" d="M113.1,188.6H91.8c-14.8,0-20.4-8.9-20.4-17c0-9.6,7.3-16.7,17.1-16.7c3.3,0,6,0.8,6.7,1.2v-9.8H113
		L113.1,188.6L113.1,188.6z M95.2,168.9c-0.8-0.5-1.9-0.9-3-0.9c-2.1,0-3.7,1.8-3.7,4.3c0,3,1.8,4.1,5.3,4.1h1.4
		C95.2,176.4,95.2,168.9,95.2,168.9z"/>
	<path class="st1" d="M160.2,188.6h-17.1v-5.9H143c-3.7,4.4-7,6.1-11.9,6.1c-6.5,0-12.1-3.6-12.1-11.8v-21.9h16.8v18
		c0,2.8,0.8,4.6,3.2,4.6c1.4,0,2.6-0.7,3.2-1.8v-20.8H160v33.5H160.2z"/>
	<path class="st1" d="M168.1,176c2.4,3.1,6.1,5.1,9.6,5.1c2.1,0,3.4-1,3.4-2.4c0-4-8-2.6-12.9-7.3c-1.7-1.6-2.8-3.9-2.8-6.4
		c0-6.7,6.2-10.5,17-10.5c5.8,0,11.3,1,15.5,2.8l-4.3,8.5c-2.6-2.3-5.6-3.6-8.2-3.6c-1.7,0-2.9,0.8-2.9,2c0,4.1,8.6,2.3,13.6,7.2
		c1.8,1.7,2.7,4,2.7,6.6c0,7.6-7.3,11.2-15.6,11.2c-5.8,0-13.2-1.4-19.1-3.8L168.1,176z"/>
	<path class="st1" d="M231.4,164.5H224v7.2c0,2.4,1.2,3.6,3.4,3.6c1.7,0,3.1-0.9,4.3-2.4v13.3c-2.5,1.6-6.6,2.7-10.2,2.7
		c-7.1,0-15.2-4-15.2-13.9v-10.5H199l25.1-18.9v9.6h7.4v9.3H231.4z"/>
	<path class="st1" d="M254.5,162.3h0.1c2.1-4.8,5.6-7.4,9.7-7.4c4.8,0,8.3,3.4,8.3,8.1c0,4.9-3.4,8.2-8.3,8.2c-2.8,0-5.2-1-7.2-3.1
		c-1.8,1.5-2.7,4-2.7,8.1v12.5h-17.8v-33.5h17.8L254.5,162.3L254.5,162.3z"/>
	<path class="st1" d="M292.9,188.6H275v-33.5c2.1,1.2,5.7,1.9,9.2,1.9c3.3,0,6.5-0.7,8.7-1.9L292.9,188.6L292.9,188.6z M287.7,145.5
		c2.8,0,5,2.2,5,4.8c0,2.7-2.2,4.9-5,4.9s-5.1-2.2-5.1-4.9C282.7,147.7,285,145.5,287.7,145.5z"/>
	<path class="st1" d="M299.9,158.8c5.6-2.8,10.4-4,17.1-4c11,0,17.8,4,17.8,15.2v18.5H317V186c-2.2,1.6-5.7,2.8-8.7,2.8
		c-5.3,0-9.3-3.7-9.3-8.8c0-5.7,4.8-9.7,11.9-9.7c2,0,4.2,0.3,6.1,0.8c0-3.2-2.8-5-7-5c-3.5,0-6.4,0.8-10,2.7v-10H299.9z M317,176.5
		c-1.3-0.4-2-0.5-2.9-0.5c-2.2,0-3.6,1.1-3.6,2.9c0,1.8,1.6,3.2,3.7,3.2c1.1,0,2-0.3,2.8-0.9V176.5z"/>
	<path class="st1" d="M341.4,188.6v-42.4h17.8v42.4H341.4z"/>
</g>
<rect y="0" class="st0" width="44" height="33"/>
<rect x="63.7" y="0" class="st0" width="44" height="33"/>
<rect x="126.4" y="0" class="st0" width="44" height="33"/>
<rect x="189.2" y="0" class="st1" width="44" height="33"/>
<rect x="252.6" y="0" class="st0" width="44" height="33"/>
<rect x="315.4" y="0" class="st0" width="44" height="33"/>
</svg>
