<?xml version="1.0" encoding="utf-8"?>
<!-- Generator: Adobe Illustrator 25.0.1, SVG Export Plug-In . SVG Version: 6.00 Build 0)  -->
<svg version="1.1" id="Layer_1" xmlns="http://www.w3.org/2000/svg" xmlns:xlink="http://www.w3.org/1999/xlink" x="0px" y="0px"
	 width="227.8px" height="72.3px" viewBox="0 0 227.8 72.3" style="enable-background:new 0 0 227.8 72.3;" xml:space="preserve">
<style type="text/css">
	.st0{fill:#060B09;}
	.st1{fill:#1CBBEE;}
	.st2{fill:url(#SVGID_1_);}
	.st3{fill:url(#SVGID_2_);}
	.st4{fill:url(#SVGID_3_);}
	.st5{fill:url(#SVGID_4_);}
	.st6{fill:url(#SVGID_5_);}
	.st7{fill:url(#SVGID_6_);}
	.st8{fill:url(#SVGID_7_);}
	.st9{fill:url(#SVGID_8_);}
</style>
<g>
	<path class="st0" d="M98.8,8.8l-0.4,0.4H85.8l-0.4,0.4v6.1l0.4,0.4h11.8l0.4,0.4v4.1L97.6,21H85.8l-0.4,0.4v10.9L85,32.8h-4.9
		l-0.4-0.4V4.8l0.4-0.4h18.2l0.4,0.4V8.8z"/>
	<path class="st0" d="M108.6,32.4l-0.4,0.4h-4.9l-0.4-0.4V4.8l0.4-0.4h4.9l0.4,0.4V32.4z"/>
	<path class="st0" d="M113,12.9l0.4-0.4h4.9l0.4,0.4v11.8c0,2.4,1.1,3.6,3.2,3.6c1.4,0,2.4-0.4,3-1.3c0.7-0.9,1-2.1,1-3.5V12.9
		l0.4-0.4h4.9l0.4,0.4v19.5l-0.4,0.4h-4.5l-0.4-0.4l-0.4-1.2h-0.4c0,0.1-0.1,0.1-0.1,0.2c-0.1,0.1-0.2,0.3-0.5,0.5
		c-0.3,0.2-0.6,0.4-0.9,0.6c-0.3,0.2-0.8,0.3-1.4,0.5c-0.6,0.1-1.2,0.2-1.9,0.2c-2.4,0-4.3-0.7-5.7-2.2c-1.4-1.5-2-3.4-2-5.9V12.9z"
		/>
	<path class="st0" d="M153.6,32.4l-0.4,0.4h-2.4l-0.8-0.4l-5.3-6.5h-0.4l-5.3,6.5l-0.8,0.4h-2.4l-0.4-0.4v-4.1l4.9-5.7v-0.4
		l-4.5-5.3v-4.1l0.4-0.4h2.4l0.8,0.4l4.9,6.1h0.4l4.9-6.1l0.8-0.4h2.4l0.4,0.4v4.1l-4.5,5.3v0.4l4.9,5.7V32.4z"/>
	<path class="st0" d="M102.1,47.1c0,2.7-0.9,4.7-2.6,6.1c-1.7,1.4-4,2-6.8,2h-8.5l-0.4,0.4v11.4l-0.4,0.4h-3.2l-0.4-0.4V39.4
		l0.4-0.4h12.6c2.9,0,5.2,0.7,6.9,2C101.2,42.3,102.1,44.3,102.1,47.1z M96.8,50.5c0.8-0.7,1.3-1.8,1.3-3.4s-0.4-2.7-1.3-3.4
		c-0.8-0.7-2.2-1-4-1h-8.5L83.8,43v8.1l0.4,0.4h8.5C94.6,51.5,95.9,51.2,96.8,50.5z"/>
	<path class="st0" d="M120.3,66.9l-0.4,0.4h-2.8l-0.4-0.4l-0.4-1.6h-0.4c-0.1,0.1-0.1,0.1-0.2,0.3c-0.1,0.1-0.3,0.3-0.6,0.6
		c-0.3,0.3-0.7,0.5-1.1,0.7c-0.4,0.2-0.9,0.4-1.6,0.6c-0.7,0.2-1.4,0.3-2.1,0.3c-2.2,0-3.9-0.6-5.1-1.7c-1.2-1.1-1.8-2.7-1.8-4.8
		c0-2.2,0.8-3.8,2.4-4.9c1.6-1.1,3.8-1.6,6.5-1.6c0.6,0,1.2,0,1.8,0.1c0.6,0.1,1.1,0.1,1.4,0.2l0.5,0.1l0.4-0.4V54
		c0-1.4-0.3-2.3-0.9-2.9c-0.6-0.5-1.7-0.8-3.1-0.8c-2.7,0-4.1,0.8-4.1,2.4l-0.4,0.4h-3.2l-0.4-0.4c0-1.6,0.7-3.1,2-4.3
		c1.3-1.2,3.4-1.8,6.1-1.8c3,0,5.1,0.7,6.3,2.1c1.2,1.4,1.8,3.7,1.8,6.8V66.9z M116.3,60v-1.2l-0.4-0.4c-0.8-0.3-1.9-0.4-3.2-0.4
		c-3.5,0-5.3,1.1-5.3,3.2c0,1.9,1.2,2.8,3.6,2.8c1.6,0,2.9-0.4,3.9-1.1C115.8,62.2,116.3,61.3,116.3,60z"/>
	<path class="st0" d="M136.5,50.3l-0.4,0.4h-2c-1.8,0-3.1,0.4-4,1.3c-0.9,0.9-1.3,2.5-1.3,4.8v10.1l-0.4,0.4h-3.2l-0.4-0.4V47.5
		l0.4-0.4h2.8l0.4,0.4l0.4,1.6h0.4c0.7-0.7,1.4-1.2,2.2-1.5c0.7-0.3,1.8-0.5,3.1-0.5h1.6l0.4,0.4V50.3z"/>
	<path class="st0" d="M151.1,66.9l-0.4,0.4h-3.2c-1.6,0-2.9-0.5-4-1.4s-1.7-2.2-1.7-3.9V51.1l-0.4-0.4h-2.8l-0.4-0.4v-2.8l0.4-0.4
		h2.8l0.4-0.4V43l0.4-0.4h3.2l0.4,0.4v3.6l0.4,0.4h4.5l0.4,0.4v2.8l-0.4,0.4h-4.5l-0.4,0.4v10.9c0,1.1,0.5,1.6,1.6,1.6h3.2l0.4,0.4
		V66.9z"/>
	<path class="st0" d="M172.6,66.9l-0.4,0.4H169l-0.4-0.4V55.2c0-3.2-1.4-4.9-4.1-4.9c-1.8,0-3.2,0.5-4,1.6c-0.8,1.1-1.3,2.8-1.3,5.3
		v9.7l-0.4,0.4h-3.2l-0.4-0.4V47.5l0.4-0.4h2.8l0.4,0.4l0.4,1.6h0.4c0.1-0.1,0.1-0.1,0.2-0.3c0.1-0.1,0.3-0.3,0.6-0.6
		c0.3-0.3,0.7-0.5,1-0.7c0.4-0.2,0.9-0.4,1.5-0.6c0.6-0.2,1.3-0.3,1.9-0.3c2.7,0,4.7,0.8,5.9,2.3c1.2,1.5,1.8,3.6,1.8,6.2V66.9z"/>
	<path class="st0" d="M185.6,67.7c-3.1,0-5.5-1-7.2-2.9c-1.7-1.9-2.5-4.5-2.5-7.6c0-3.1,0.8-5.6,2.4-7.6c1.6-2,3.9-3,7-3s5.4,1,7,3
		c1.6,2,2.4,4.5,2.4,7.6v1.2l-0.4,0.4h-13.4l-0.4,0.4c0,0.2,0,0.5,0.1,0.8c0.1,0.3,0.2,0.7,0.4,1.2c0.2,0.5,0.5,0.9,0.8,1.3
		c0.4,0.4,0.9,0.7,1.6,1c0.7,0.3,1.5,0.4,2.4,0.4c2.1,0,3.4-0.8,4.1-2.4l0.4-0.4h3.2l0.4,0.4c-0.2,1.7-1,3.2-2.5,4.3
		C189.8,67.2,187.9,67.7,185.6,67.7z M189.6,55.6l0.4-0.4c0-0.4-0.1-0.9-0.2-1.3c-0.1-0.4-0.3-1-0.6-1.5s-0.8-1.1-1.5-1.4
		c-0.7-0.4-1.6-0.6-2.6-0.6s-1.9,0.2-2.6,0.6c-0.7,0.4-1.2,0.9-1.5,1.4s-0.5,1.1-0.6,1.5c-0.1,0.4-0.2,0.9-0.2,1.3l0.4,0.4H189.6z"
		/>
	<path class="st0" d="M209.9,50.3l-0.4,0.4h-2c-1.8,0-3.1,0.4-4,1.3c-0.9,0.9-1.3,2.5-1.3,4.8v10.1l-0.4,0.4h-3.2l-0.4-0.4V47.5
		l0.4-0.4h2.8l0.4,0.4l0.4,1.6h0.4c0.7-0.7,1.4-1.2,2.2-1.5c0.7-0.3,1.8-0.5,3.1-0.5h1.6l0.4,0.4V50.3z"/>
	<path class="st0" d="M227.8,61.7c0,1.8-0.7,3.2-2,4.4c-1.4,1.1-3.4,1.7-6.1,1.7c-2.6,0-4.6-0.6-6-1.8c-1.4-1.2-2.1-2.9-2.1-5.1
		l0.4-0.4h3.2l0.4,0.4c0,2.2,1.4,3.2,4.1,3.2c2.7,0,4.1-0.8,4.1-2.4c0-1-0.3-1.6-1-2c-0.7-0.4-2.1-0.8-4.3-1.2
		c-2.1-0.4-3.8-1.1-4.8-2c-1.1-0.9-1.6-2.3-1.6-4c0-1.6,0.6-2.9,1.9-4c1.2-1.1,3.2-1.6,5.8-1.6c2.3,0,4.2,0.5,5.6,1.6
		s2.1,2.5,2.1,4.5l-0.4,0.4h-3.2l-0.4-0.4c0-1.6-1.2-2.4-3.6-2.4c-2.4,0-3.6,0.7-3.6,2c0,0.9,0.4,1.6,1.2,2c0.8,0.4,2.3,0.8,4.5,1.3
		c2.1,0.4,3.6,1.1,4.6,2C227.3,58.5,227.8,59.9,227.8,61.7z"/>
</g>
<polygon class="st1" points="0,0.1 0,17.8 30.4,35.6 0,54.3 0,71.4 60.6,35.8 "/>
<g>
	<linearGradient id="SVGID_1_" gradientUnits="userSpaceOnUse" x1="11.552" y1="36.0586" x2="47.0024" y2="36.0586">
		<stop  offset="0" style="stop-color:#52AF48"/>
		<stop  offset="1" style="stop-color:#FDEF45"/>
	</linearGradient>
	<path class="st2" d="M59.4,72.1c-0.8,0-1.5-0.7-1.5-1.5V1.5c0-0.8,0.7-1.5,1.5-1.5s1.5,0.7,1.5,1.5v69.1
		C60.9,71.4,60.2,72.1,59.4,72.1z"/>
	<linearGradient id="SVGID_2_" gradientUnits="userSpaceOnUse" x1="11.552" y1="36.0586" x2="47.0024" y2="36.0586">
		<stop  offset="0" style="stop-color:#52AF48"/>
		<stop  offset="1" style="stop-color:#FDEF45"/>
	</linearGradient>
	<path class="st3" d="M51.7,67c-0.8,0-1.5-0.7-1.5-1.5V6.6c0-0.8,0.7-1.5,1.5-1.5s1.5,0.7,1.5,1.5v58.9C53.2,66.4,52.6,67,51.7,67z"
		/>
	<linearGradient id="SVGID_3_" gradientUnits="userSpaceOnUse" x1="11.552" y1="36.0586" x2="47.0024" y2="36.0586">
		<stop  offset="0" style="stop-color:#52AF48"/>
		<stop  offset="1" style="stop-color:#FDEF45"/>
	</linearGradient>
	<path class="st4" d="M44.1,63.3c-0.8,0-1.5-0.7-1.5-1.5V10.4c0-0.8,0.7-1.5,1.5-1.5s1.5,0.7,1.5,1.5v51.4
		C45.6,62.6,44.9,63.3,44.1,63.3z"/>
	<linearGradient id="SVGID_4_" gradientUnits="userSpaceOnUse" x1="11.552" y1="36.0586" x2="47.0024" y2="36.0586">
		<stop  offset="0" style="stop-color:#52AF48"/>
		<stop  offset="1" style="stop-color:#FDEF45"/>
	</linearGradient>
	<path class="st5" d="M36.4,58.8c-0.8,0-1.5-0.7-1.5-1.5V14.8c0-0.8,0.7-1.5,1.5-1.5S38,14,38,14.8v42.5
		C38,58.2,37.3,58.8,36.4,58.8z"/>
	<linearGradient id="SVGID_5_" gradientUnits="userSpaceOnUse" x1="11.552" y1="36.0586" x2="47.0024" y2="36.0586">
		<stop  offset="0" style="stop-color:#52AF48"/>
		<stop  offset="1" style="stop-color:#FDEF45"/>
	</linearGradient>
	<path class="st6" d="M28.8,55c-0.8,0-1.5-0.7-1.5-1.5V18.6c0-0.8,0.7-1.5,1.5-1.5c0.8,0,1.5,0.7,1.5,1.5v34.9
		C30.3,54.3,29.6,55,28.8,55z"/>
	<linearGradient id="SVGID_6_" gradientUnits="userSpaceOnUse" x1="11.552" y1="36.059" x2="47.0024" y2="36.059">
		<stop  offset="0" style="stop-color:#52AF48"/>
		<stop  offset="1" style="stop-color:#FDEF45"/>
	</linearGradient>
	<path class="st7" d="M21.2,50c-0.8,0-1.5-0.7-1.5-1.5V23.7c0-0.8,0.7-1.5,1.5-1.5c0.8,0,1.5,0.7,1.5,1.5v24.8
		C22.7,49.3,22,50,21.2,50z"/>
	<linearGradient id="SVGID_7_" gradientUnits="userSpaceOnUse" x1="11.552" y1="36.0586" x2="47.0024" y2="36.0586">
		<stop  offset="0" style="stop-color:#52AF48"/>
		<stop  offset="1" style="stop-color:#FDEF45"/>
	</linearGradient>
	<path class="st8" d="M13.5,45.8c-0.8,0-1.5-0.7-1.5-1.5V27.8c0-0.8,0.7-1.5,1.5-1.5s1.5,0.7,1.5,1.5v16.6
		C15,45.2,14.3,45.8,13.5,45.8z"/>
	<linearGradient id="SVGID_8_" gradientUnits="userSpaceOnUse" x1="11.552" y1="36.0586" x2="47.0024" y2="36.0586">
		<stop  offset="0" style="stop-color:#52AF48"/>
		<stop  offset="1" style="stop-color:#FDEF45"/>
	</linearGradient>
	<path class="st9" d="M5.9,41.1c-0.8,0-1.5-0.7-1.5-1.5v-7.1C4.3,31.7,5,31,5.9,31s1.5,0.7,1.5,1.5v7.1C7.4,40.4,6.7,41.1,5.9,41.1z
		"/>
</g>
</svg>
