<?xml version="1.0" encoding="utf-8"?>
<!-- Generator: Adobe Illustrator 21.0.2, SVG Export Plug-In . SVG Version: 6.00 Build 0)  -->
<svg version="1.1" id="Layer_1" xmlns="http://www.w3.org/2000/svg" xmlns:xlink="http://www.w3.org/1999/xlink" x="0px" y="0px"
	 viewBox="0 0 1000 1000" style="enable-background:new 0 0 1000 1000;" xml:space="preserve">
<style type="text/css">
	.st0{fill:#FFFFFF;stroke:#FFFFFF;stroke-miterlimit:10;}
	.st1{fill:#FFFFFF;}
</style>
<g id="Laag_3">
</g>
<g id="Laag_1">
	<path class="st0" d="M500,50C251.5,50,50,251.5,50,500s201.5,450,450,450s450-201.5,450-450S748.5,50,500,50z M500,925
		C265.3,925,75,734.7,75,500S265.3,75,500,75s425,190.3,425,425S734.7,925,500,925z"/>
	<path class="st1" d="M538.9,905.5l-12.8-62.7c-17.3,1.3-34.8,1.3-52.1,0l-12.8,62.7l-4.5-0.5c-24.2-2.6-48.2-7.3-71.4-14.1
		l-4.4-1.3l12.1-62.8c-16.5-5.4-32.7-12.1-48.2-20l-35.8,53l-4-2.2c-21.3-11.6-41.6-25.3-60.5-40.5l-3.5-2.9l35.2-53.4
		c-13.2-11.3-25.5-23.7-36.9-36.9l-53.4,35.2l-2.9-3.5c-15.2-18.9-28.9-39.2-40.5-60.5l-2.2-4l53-35.8c-7.9-15.5-14.6-31.7-20-48.2
		l-62.8,12.1l-1.3-4.4c-6.8-23.2-11.6-47.3-14.1-71.4l-0.5-4.5l62.7-12.8c-0.6-8.6-1-17.4-1-26.1s0.3-17.4,1-26.1l-62.7-12.8
		l0.5-4.5c2.6-24.2,7.3-48.2,14.1-71.4l1.3-4.4l62.8,12.1c5.4-16.5,12.1-32.7,20-48.2l-53-35.8l2.2-4c11.6-21.3,25.3-41.6,40.5-60.5
		l2.9-3.5l53.4,35.2c11.3-13.2,23.7-25.5,36.9-36.9l-35.2-53.4l3.5-2.9c18.9-15.3,39.3-28.9,60.5-40.5l4-2.2l35.8,53
		c15.5-7.9,31.7-14.6,48.2-20l-12.1-62.8l4.4-1.3c23.2-6.8,47.3-11.6,71.4-14.1l4.5-0.5l12.8,62.7c17.3-1.3,34.8-1.3,52.1,0
		l12.8-62.7l4.5,0.5c24.2,2.6,48.2,7.3,71.4,14.1l4.4,1.3l-12.1,62.8c16.5,5.4,32.7,12.1,48.2,20l35.8-53l4,2.2
		c21.3,11.6,41.6,25.3,60.5,40.5l3.5,2.9l-35.2,53.4c13.2,11.3,25.5,23.7,36.9,36.9l53.4-35.2l2.9,3.5
		c15.2,18.9,28.9,39.2,40.5,60.5l2.2,4l-53,35.8c7.9,15.5,14.6,31.7,20,48.2l62.8-12.1l1.3,4.4c6.8,23.2,11.6,47.3,14.1,71.4
		l0.5,4.5l-62.7,12.8c0.6,8.6,1,17.4,1,26.1s-0.3,17.4-1,26.1l62.7,12.8l-0.5,4.5c-2.6,24.2-7.3,48.2-14.1,71.4l-1.3,4.4l-62.8-12.1
		c-5.4,16.5-12.1,32.7-20,48.2l53,35.8l-2.2,4c-11.6,21.3-25.3,41.6-40.5,60.5l-2.9,3.5l-53.4-35.2c-11.3,13.2-23.7,25.5-36.9,36.9
		l35.2,53.4l-3.5,2.9c-18.9,15.2-39.2,28.9-60.5,40.5l-4,2.2l-35.8-53c-15.5,7.9-31.7,14.6-48.2,20l12.1,62.8l-4.4,1.3
		c-23.2,6.8-47.3,11.6-71.4,14.1L538.9,905.5z M534.1,832.1l12.8,62.5c20.5-2.4,41-6.5,60.8-12l-12.1-62.6l4.3-1.3
		c18.8-5.9,37.3-13.5,54.8-22.7l4-2.1l35.7,52.8c18-10.1,35.3-21.7,51.5-34.5l-35.1-53.2l3.4-2.9c15.1-12.7,29.2-26.8,41.9-41.9
		l2.9-3.4l53.2,35.1c12.8-16.2,24.4-33.5,34.5-51.5l-52.8-35.7l2.1-4c9.2-17.5,16.8-35.9,22.7-54.8l1.3-4.3l62.6,12.1
		c5.6-19.8,9.6-40.3,12-60.8l-62.5-12.8l0.4-4.4c0.9-9.8,1.3-19.8,1.3-29.6s-0.4-19.8-1.3-29.6l-0.4-4.4l62.5-12.8
		c-2.4-20.5-6.5-41-12-60.8l-62.6,12.1l-1.3-4.3c-5.9-18.8-13.5-37.3-22.7-54.8l-2.1-4l52.8-35.7c-10.1-18-21.7-35.3-34.5-51.5
		l-53.2,35.1l-2.9-3.4c-12.7-15.1-26.8-29.2-41.9-41.9l-3.4-2.9l35.1-53.2c-16.2-12.8-33.5-24.4-51.5-34.5l-35.7,52.8l-4-2.1
		c-17.5-9.2-35.9-16.8-54.8-22.7l-4.3-1.3l12.1-62.6c-19.8-5.6-40.3-9.6-60.8-12l-12.8,62.5l-4.4-0.4c-9.8-0.9-19.8-1.3-29.6-1.3
		s-19.8,0.4-29.6,1.3l-4.4,0.4l-12.8-62.5c-20.5,2.4-41,6.5-60.8,12l12.1,62.6l-4.3,1.3c-18.8,5.9-37.3,13.5-54.8,22.7l-4,2.1
		l-35.7-52.8c-18,10.1-35.3,21.7-51.5,34.5l35.1,53.2l-3.4,2.9c-15.1,12.7-29.2,26.8-41.9,41.9l-2.9,3.4l-53.2-35.1
		c-12.8,16.2-24.4,33.5-34.5,51.5l52.8,35.7l-2.1,4c-9.2,17.5-16.8,35.9-22.7,54.8l-1.3,4.3l-62.6-12.1c-5.6,19.8-9.6,40.3-12,60.8
		l62.5,12.8l-0.4,4.4c-0.9,9.8-1.3,19.8-1.3,29.6s0.4,19.8,1.3,29.6l0.4,4.4l-62.5,12.8c2.4,20.5,6.5,41,12,60.8l62.6-12.1l1.3,4.3
		c5.9,18.8,13.5,37.3,22.7,54.8l2.1,4l-52.8,35.7c10.1,18,21.7,35.3,34.5,51.5l53.2-35.1l2.9,3.4c12.7,15.1,26.8,29.2,41.9,41.9
		l3.4,2.9l-35.1,53.2c16.2,12.8,33.5,24.4,51.5,34.5l35.7-52.8l4,2.1c17.5,9.2,35.9,16.8,54.8,22.7l4.3,1.3l-12.1,62.6
		c19.9,5.6,40.3,9.6,60.8,12l12.8-62.5l4.4,0.4c19.6,1.7,39.7,1.7,59.3,0L534.1,832.1z"/>
	<rect x="475" y="200" class="st0" width="50" height="600"/>
	<polygon class="st0" points="475,500 298.2,323.2 262.9,358.5 404.3,500 262.9,641.5 298.2,676.8 475,500 475,500 	"/>
	<polygon class="st0" points="525,500 701.8,323.2 737.1,358.5 595.7,500 737.1,641.5 701.8,676.8 525,500 525,500 	"/>
</g>
<g id="Laag_2">
	<rect x="475" y="200" class="st0" width="50" height="600"/>
	<polygon class="st0" points="475,500 298.2,323.2 262.9,358.5 404.3,500 262.9,641.5 298.2,676.8 475,500 475,500 	"/>
	<polygon class="st0" points="525,500 701.8,323.2 737.1,358.5 595.7,500 737.1,641.5 701.8,676.8 525,500 525,500 	"/>
	<path class="st0" d="M624,500l141.5-141.5l-63.6-63.6L545,451.7V180h-90v271.7L298.2,294.9l-63.6,63.6L376,500L234.6,641.5
		l63.6,63.6L455,548.3V820h90V548.3l156.8,156.8l63.6-63.6L624,500z M535,524.2V810h-70V524.2L298.2,691l-49.5-49.5L390.2,500
		L248.7,358.5l49.5-49.5L465,475.8V190h70v285.8L701.8,309l49.5,49.5L609.8,500l141.5,141.5L701.8,691L535,524.2z"/>
	<path class="st0" d="M500,50C251.5,50,50,251.5,50,500s201.5,450,450,450s450-201.5,450-450S748.5,50,500,50z M500,925
		C265.3,925,75,734.7,75,500S265.3,75,500,75s425,190.3,425,425S734.7,925,500,925z"/>
	<g>
		<path class="st0" d="M933.1,317c-23.7-56-57.6-106.2-100.7-149.4c-43.2-43.2-93.4-77-149.4-100.7C625,42.4,563.4,30,500,30
			c-63.4,0-125,12.4-183,36.9c-56,23.7-106.2,57.6-149.4,100.7S90.6,261.1,66.9,317C42.4,375,30,436.6,30,500s12.4,125,36.9,183
			c23.7,56,57.6,106.2,100.7,149.4c43.2,43.2,93.4,77,149.4,100.7c58,24.5,119.5,36.9,183,36.9c63.4,0,125-12.4,183-36.9
			c56-23.7,106.2-57.6,149.4-100.7c43.2-43.2,77-93.4,100.7-149.4c24.5-58,36.9-119.5,36.9-183S957.6,375,933.1,317z M923.8,679.1
			c-23.2,54.8-56.3,104-98.6,146.2c-42.2,42.2-91.4,75.4-146.2,98.6c-56.7,24-117,36.2-179.1,36.2c-62.1,0-122.3-12.2-179.1-36.2
			c-54.8-23.2-104-56.3-146.2-98.6s-75.4-91.4-98.6-146.2C52.2,622.3,40,562.1,40,500s12.2-122.3,36.2-179.1
			c23.2-54.8,56.3-104,98.6-146.2c42.2-42.2,91.4-75.4,146.2-98.6C377.7,52.2,437.9,40,500,40c62.1,0,122.3,12.2,179.1,36.2
			c54.8,23.2,104,56.3,146.2,98.6c42.2,42.2,75.4,91.4,98.6,146.2c24,56.7,36.2,117,36.2,179.1S947.8,622.3,923.8,679.1z"/>
	</g>
</g>
</svg>
