<?xml version="1.0" encoding="UTF-8"?> <svg xmlns="http://www.w3.org/2000/svg" id="Laag_1" data-name="Laag 1" viewBox="0 0 165.2 48.5"><defs><style> .cls-1 { fill: #5da7e5; } .cls-2 { fill: #1d1d1b; } </style></defs><g><path class="cls-2" d="m26.3,27.9c-1.4,4.9-6.6,7.7-12.5,7.8,2-.2,3.5-1.8,3.5-3.5.1-2.7-1.3-3.9-7.4-8.1C4.8,20.8,0,17.1,0,10.8,0,4.8,4.8.2,11.4,0c-4.1.7-3.6,4.6-1.6,7.2,3.9,3.7,5.4,4.8,6.7,5.4,5.1,3.3,11.9,7.9,9.9,15.2ZM1.1,24.1c.4,3.9,4,10.6,10.4,10.9-3.4-.2-6.8-.5-10.4.3v-11.2Zm23.7-12.3c-.3-3.8-3.2-10.1-10.2-10.9,3.3.2,6.5.4,10.2-.4v11.3Z"></path><path class="cls-2" d="m30.9,15.6L37.2,0l12.7,31.4c1.1,2.7,2.5,3.6,4.7,4h-18.9c1.8-.4,2.5-1.3,1.4-4l-6.2-15.8Z"></path><path class="cls-2" d="m80.9,27.9c-1.4,4.9-6.6,7.7-12.5,7.8,2-.2,3.5-1.8,3.5-3.5,0-2.7-1.3-3.9-7.4-8.1-5.1-3.3-10-7-9.9-13.3C54.6,4.8,59.4.2,66,0c-4.1.7-3.6,4.6-1.6,7.2,3.9,3.7,5.4,4.8,6.7,5.4,5.1,3.3,11.9,7.9,9.9,15.2Zm-25.3-3.9c.4,3.9,4,10.6,10.4,10.9-3.4-.2-6.8-.5-10.4.3v-11.2Zm23.7-12.3c-.3-3.8-3.2-10.1-10.2-10.9,3.3.2,6.5.4,10.2-.4v11.3Z"></path><path class="cls-2" d="m86.5,5c0-3.5-1-4.4-3.1-4.8h17c-2.1.5-3.1,1.4-3.1,4.8v26.9c0,8.3-2.6,14.9-11.5,15.9.4-.1.7-9.6.7-10.2V5Z"></path><path class="cls-2" d="m103.9,15.6l6.3-15.6,12.7,31.4c1.1,2.7,2.5,3.6,4.7,4h-18.9c1.8-.4,2.5-1.3,1.4-4l-6.2-15.8Z"></path></g><g><path class="cls-1" d="m106.1,46.8c0,1,.3,1.7,1.2,1.7-.1,0-.3,0-.4,0-2.4,0-4.4-1.4-4.4-3.7,0-2.3,1.9-3.7,4.3-3.7h.2c-.6.2-1,.8-1,1.7v3.9Zm2.8-5c.8,0,1.5.7,1.5,1.5s-.7,1.5-1.5,1.5-1.5-.7-1.5-1.5.7-1.5,1.5-1.5Z"></path><path class="cls-1" d="m111.2,46.8c0-1.6,2-1.7,4.4-1.7-.5,0-.9.3-.9,1v.8c0,.5.5,1,1.1.5-1.1,1.4-4.6,1.3-4.6-.8Zm2.3-5.3c.8,0,1.5.6,1.5,1.4s-.7,1.4-1.5,1.4-1.5-.6-1.5-1.4.7-1.4,1.5-1.4Zm2.8,2.5c0-.9,0-1.9-.3-2.8,2.4,0,3.8,1.5,3.8,4v1.8c0,.9,0,1.4.8,1.2-.5.2-4.3,1-4.3-2.1v-2.1Z"></path><path class="cls-1" d="m121,48.5c.6-.1.9-.4.9-1.6v-4.2c0-1-.3-1.2-.9-1.4h4.4v5.7c0,1,.3,1.3.9,1.4h-5.2Zm6.7-7.2c.9,0,1.6.7,1.6,1.5s-.7,1.4-1.6,1.4-1.5-.7-1.5-1.4.7-1.5,1.5-1.5Z"></path><path class="cls-1" d="m133.4,46.6c0,1.2.3,1.9,1.4,1.9-.2,0-.3,0-.5,0-2.5,0-4.5-1.3-4.5-3.7s1.9-3.6,4.4-3.7c-.7,0-.9,1-.9,2v3.4Zm1.4-1.6c.4-.6.5-1.2.4-1.9,0-.9-.2-1.8-.9-1.9,2.5,0,4.5,1.5,4.3,3.8h-3.9Z"></path><path class="cls-1" d="m143.5,46.6c0,1.2.3,1.9,1.4,1.9-.2,0-.3,0-.5,0-2.5,0-4.5-1.3-4.5-3.7s1.9-3.6,4.4-3.7c-.7,0-.9,1-.9,2v3.4Zm1.4-1.6c.4-.6.5-1.2.4-1.9,0-.9-.2-1.8-.9-1.9,2.5,0,4.5,1.5,4.3,3.8h-3.9Z"></path><path class="cls-1" d="m149.3,48.5c.6-.1.9-.4.9-1.6v-4.2c0-1-.3-1.2-.9-1.4h4.4v5.7c0,1,.3,1.3.9,1.4h-5.2Zm6.7-7.2c.9,0,1.6.7,1.6,1.5s-.7,1.4-1.6,1.4-1.5-.7-1.5-1.4.7-1.5,1.5-1.5Z"></path><path class="cls-1" d="m158.7,43.1c.2-1,1-1.7,2.4-1.8.3,0,.5,0,.8,0-.7,0-1,.3-1.1.6-.2.6.6,1,1.8,1.5,1.3.6,2.9,1.7,2.5,3.4-.3,1.2-1.4,1.8-2.8,1.8-.2,0-.4,0-.6,0,.7,0,1.1-.3,1.1-.7.1-.6-.7-1-1.8-1.4-1.3-.6-2.6-1.7-2.3-3.3Zm.2,3.1c.2,1,1.1,2,2.1,2.2-.6,0-1.3-.1-2.1.1v-2.3Zm5.9-2.6c-.1-1-1-2-2.1-2.2.6,0,1.3.1,2.1-.1v2.4Z"></path></g></svg> 