<svg viewBox="0 0 264 40" fill="none" xmlns="http://www.w3.org/2000/svg"><path d="M64.775 18.646c-4.504-.822-8.395-1.53-8.395-4.986 0-2.436 2.532-4.074 6.303-4.074 3.77 0 6.953 1.97 7.407 4.794l.012.077h7.026l-.014-.102C76.283 8.101 70.543 3.9 62.83 3.9c-7.712 0-13.255 4.217-13.255 10.256 0 7.342 6.61 8.612 12.443 9.733 4.764.914 8.88 1.705 8.88 5.444 0 2.86-2.918 4.781-7.258 4.781-4.341 0-7.781-2.237-8.215-5.567l-.011-.079h-6.658l.011.1c.726 6.91 6.68 11.376 15.166 11.376 7.85 0 13.77-4.621 13.77-10.75 0-8.188-6.868-9.44-12.928-10.544v-.003zm36.654-14.747c-10.319 0-18.401 7.853-18.401 17.88 0 4.978 1.882 9.572 5.301 12.937 3.424 3.369 8.102 5.225 13.173 5.225 8.858 0 15.692-4.796 17.003-11.935l.02-.107h-6.951l-.017.07c-.852 3.547-4.805 5.93-9.834 5.93-6.705 0-11.249-4.093-11.881-10.69h28.875l.011-.079c.074-.565.147-1.42.147-2.059 0-9.79-7.499-17.174-17.445-17.174l-.001.002zm-.295 5.616c5.605 0 9.782 3.52 10.191 8.573H90.15c1.296-5.291 5.495-8.573 10.984-8.573zm43.082-5.616c-4.98 0-9.005 2.282-11.375 6.434v-5.73h-7.026v34.631h7.026v-19.08c0-5.993 3.859-9.863 9.831-9.863 5.972 0 9.684 3.871 9.684 9.863v19.08h6.952V19.448c0-9.591-5.784-15.55-15.093-15.55h.001zm37.528 14.747c-4.504-.822-8.395-1.53-8.395-4.986 0-2.436 2.532-4.074 6.303-4.074 3.77 0 6.953 1.97 7.406 4.794l.013.077h7.026l-.014-.102C193.252 8.101 187.512 3.9 179.799 3.9c-7.712 0-13.255 4.217-13.255 10.256 0 7.342 6.611 8.612 12.443 9.733 4.764.914 8.88 1.705 8.88 5.444 0 2.86-2.918 4.781-7.258 4.781-4.341 0-7.781-2.237-8.215-5.567l-.011-.079h-6.658l.011.1c.728 6.91 6.681 11.376 15.166 11.376 7.85 0 13.769-4.621 13.769-10.75 0-8.188-6.867-9.44-12.927-10.544v-.003zm36.873-14.747c-5.078 0-9.782 1.852-13.246 5.215-3.468 3.366-5.376 7.938-5.376 12.876 0 4.937 1.91 9.442 5.377 12.779 3.463 3.334 8.167 5.172 13.247 5.172 10.442 0 18.622-7.885 18.622-17.951s-8.18-18.093-18.622-18.093l-.002.002zm0 29.648c-3.24 0-6.233-1.185-8.425-3.334-2.187-2.146-3.392-5.066-3.392-8.223 0-6.67 5.079-11.7 11.816-11.7 3.22 0 6.201 1.19 8.396 3.353 2.205 2.172 3.42 5.137 3.42 8.347 0 6.481-5.19 11.557-11.816 11.557h.001zm45.315-29.15a13.006 13.006 0 00-3.335-.428c-4.038 0-7.49 1.92-9.758 5.415v-4.78h-7.026v34.63h7.026V19.73c0-5.723 3.922-9.722 9.538-9.722 1.129 0 2.371.199 3.499.56l.124.04V4.415l-.068-.018zM31.371 30.119c-8.713 8.365-18.885 12.159-22.727 8.47-1.531-1.47-1.822-3.904-1.073-6.83 4.067.742 10.911-2.45 16.93-8.233 6.021-5.782 9.348-12.354 8.574-16.255 3.05-.72 5.587-.44 7.118 1.03 3.839 3.686-.111 13.455-8.822 21.817z" fill="#000"/><path d="M33.075 7.271c-4.602 1.094-10.368 4.472-15.609 9.501C12.23 21.8 8.711 27.34 7.572 31.758c-.9-.161-1.661-.518-2.25-1.084-3.239-3.11.095-11.354 7.448-18.415 7.35-7.058 15.937-10.258 19.18-7.148.588.565.956 1.296 1.124 2.16h.002zm-22.74 2.652c3.034-2.913 4.41-6.315 3.072-7.599-1.337-1.283-4.88.037-7.914 2.95-3.034 2.913-4.41 6.315-3.072 7.599 1.337 1.284 4.88-.037 7.914-2.95z" fill="#000"/></svg>