<?xml version="1.0" encoding="UTF-8" standalone="no"?><!DOCTYPE svg PUBLIC "-//W3C//DTD SVG 1.1//EN" "http://www.w3.org/Graphics/SVG/1.1/DTD/svg11.dtd"><svg width="100%" height="100%" viewBox="0 0 1838 551" version="1.1" xmlns="http://www.w3.org/2000/svg" xmlns:xlink="http://www.w3.org/1999/xlink" xml:space="preserve" xmlns:serif="http://www.serif.com/" style="fill-rule:evenodd;clip-rule:evenodd;stroke-linejoin:round;stroke-miterlimit:2;"><path d="M703.65,5.115l-46.547,-0l0,330.581l190.899,-0l0,-43.136l-144.352,-0l0,-287.445Z" style="fill:#fff;fill-rule:nonzero;"/><path d="M225.699,148.104l-179.619,-0l0,-142.989l-46.08,-0l-0,330.581l46.08,-0l0,-143.967l179.619,-0l0,143.967l46.547,-0l0,-330.581l-46.547,-0l0,142.989Z" style="fill:#fff;fill-rule:nonzero;"/><path d="M408.593,195.605l47.96,-119.72l51.731,119.72l-99.691,-0Zm32.449,-192.429l-137.776,332.52l47.02,-0l40.452,-97.427l136.348,-0l42.789,97.427l47.02,-0l-143.404,-332.52l-32.449,-0Z" style="fill:#fff;fill-rule:nonzero;"/><path d="M1054.13,140.84l-106.749,-135.725l-43.255,-0l-0,330.581l46.095,-0l0,-257.385l0.932,-0l98.747,127.96l8.46,-0l97.8,-127.96l0.93,-0l-0,257.385l46.09,-0l0,-330.581l-42.78,-0l-106.27,135.725Z" style="fill:#fff;fill-rule:nonzero;"/><path d="M1778.87,158.282l-35.26,-21.317c-31.48,-19.394 -44.66,-35.399 -44.66,-55.267c-0,-22.292 21.16,-38.299 51.25,-38.299c26.34,-0 51.72,11.642 74.77,34.424l-0,-53.803c-23.05,-16.006 -47.49,-23.27 -73.82,-23.27c-55.96,-0 -94.51,35.874 -94.51,87.739c0,35.384 17.38,60.104 60.65,86.76l34.79,21.821c27.27,16.478 42.31,36.834 42.31,57.189c0,25.208 -21.61,43.64 -50.31,43.64c-19.73,-0 -41.84,-7.766 -59.7,-21.331c-10.36,-7.767 -15.05,-12.604 -26.34,-27.146l0,60.105c26.34,20.355 55.49,30.533 86.51,30.533c55.03,-0 93.11,-36.835 93.11,-90.164c0,-37.323 -19.76,-68.345 -58.79,-91.614Z" style="fill:#fff;fill-rule:nonzero;"/><path d="M1455.17,2.4l0,44.934c58.91,10.133 101.88,59.897 101.88,122.101c0,72.221 -54.07,126.512 -125.55,126.512c-71.01,-0 -124.6,-53.314 -124.6,-124.573c0,-1.569 0.16,-3.078 0.21,-4.63l-47.5,-0c-0.03,1.552 -0.21,3.061 -0.21,4.63c0,96.465 72.42,168.686 169.29,168.686c101.08,-0 175.39,-71.731 175.39,-169.648c-0,-89.328 -62.15,-157.287 -148.91,-168.012Z" style="fill:#fff;fill-rule:nonzero;"/><path d="M1432.92,45.338c7.64,-0 15.05,0.754 22.25,1.996l0,-44.934c-7.88,-0.969 -15.89,-1.65 -24.14,-1.65c-97.63,-0 -169.16,69.535 -171.42,165.994l47.5,-0c2.2,-70.756 54.03,-121.406 125.81,-121.406Z" style="fill:none;fill-rule:nonzero;stroke:#fff;stroke-width:1.5px;"/><path d="M1183.36,480.625c-16.18,-20.867 -41.47,-36.315 -54.63,-36.315l-0,68.132l16.61,-0l-0,-43.628c18.08,8.74 39.66,43.628 39.66,43.628l15.09,-0l-0,-68.191l-16.73,-0l-0,36.374Z" style="fill:#fff;fill-rule:nonzero;"/><path d="M1092.39,480.625c-16.18,-20.867 -41.47,-36.315 -54.63,-36.315l0,68.132l16.61,-0l-0,-43.628c18.08,8.74 39.66,43.628 39.66,43.628l15.09,-0l-0,-68.191l-16.73,-0l0,36.374Z" style="fill:#fff;fill-rule:nonzero;"/><path d="M1383.77,444.192l-20.58,-0l-19.76,22.31l-19.76,-22.31l-20.57,-0l30.26,32.953c-20.17,20.883 -29.46,35.174 -29.46,35.174l19.82,-0l0.21,-0.33c2.34,-3.473 5.32,-7.324 8.86,-11.481c1.07,-1.399 5.91,-6.863 10.64,-12.156c4.74,5.293 9.58,10.757 10.65,12.156c3.54,4.157 6.51,8.008 8.85,11.481l0.22,0.33l19.82,-0c-0,-0 -9.29,-14.291 -29.46,-35.174l30.26,-32.953Z" style="fill:#fff;fill-rule:nonzero;"/><rect x="1003.66" y="444.155" width="16.85" height="68.191" style="fill:#fff;fill-rule:nonzero;"/><path d="M1241.14,485.504c3.96,-9.048 7.98,-17.434 12.42,-25.89c4.44,8.456 8.46,16.842 12.43,25.89l-24.85,-0Zm21.16,-41.41l-17.48,-0c-13.7,22.134 -22.77,41.032 -34.2,68.505l20,-0c0.95,-2.362 4.96,-12.331 6.05,-14.835l33.78,-0c1.09,2.504 5.1,12.473 6.05,14.835l20.01,-0c-11.44,-27.473 -20.51,-46.371 -34.21,-68.505Z" style="fill:#fff;fill-rule:nonzero;"/><path d="M1489.36,505.151c-3.65,6.148 -7.94,11.888 -13.05,16.784c-0.74,0.712 -1.47,1.402 -2.25,2.071l-0.02,-0c-5.2,4.594 -11.22,8.327 -18.16,10.894c-0.43,0.151 -0.84,0.302 -1.27,0.453c-0.85,0.302 -1.71,0.561 -2.57,0.82c-0.69,0.215 -1.4,0.409 -2.12,0.582l-0.02,-0c-3.41,0.863 -7.01,1.445 -10.83,1.747c-2.69,-3.43 -5.15,-6.731 -7.35,-9.902c-0.24,-0.323 -0.43,-0.625 -0.65,-0.927c-8.02,-11.691 -12.96,-21.982 -15.51,-31.302c-0.97,-3.538 -1.6,-6.924 -1.9,-10.203l0,-0.022c-2.13,-21.982 9.41,-38.938 23.28,-58.353c-0.84,14.539 1.75,26.577 6.17,36.436c13.98,31.236 46.25,40.922 46.25,40.922Z" style="fill:#1695d3;"/><path d="M1560.22,489.252c-1.55,4.682 -3.19,9.018 -4.94,12.987c-19.26,44.569 -48.82,46.618 -86.48,47.999c7.85,-4.487 14.09,-9.341 19.01,-14.367c4.87,-4.94 8.49,-10.053 11.1,-15.123c0.46,-0.841 0.87,-1.704 1.26,-2.545c3.94,-8.565 5.22,-16.913 5.26,-24.075c0.02,-3.279 -0.22,-6.321 -0.6,-9.017c-1.04,-7.615 -3.07,-12.469 -3.07,-12.469c20.84,-2.287 42.13,0.862 58.46,16.61Z" style="fill:#1695d3;"/><path d="M1560.14,466.731c-22.98,-13.483 -43.6,-12.556 -59.35,-7.464c-19.2,6.212 -31.11,18.616 -31.11,18.616c-5.24,-8.305 -8.65,-16.265 -10.18,-24.355c-0.04,-0.215 -0.08,-0.431 -0.13,-0.647c-0.04,-0.216 -0.06,-0.41 -0.1,-0.625c-0.03,-0.151 -0.05,-0.324 -0.07,-0.475c-1.66,-10.247 -0.37,-20.71 3.88,-32.359c64.55,-12.749 79.28,12.965 97.06,47.309Z" style="fill:#1695d3;"/><path d="M1526.33,436.472c8.22,-0 14.88,6.663 14.88,14.883c-0,0.641 -0.05,1.268 -0.13,1.887c0.46,-1.373 0.73,-2.84 0.73,-4.37c0,-7.538 -6.11,-13.648 -13.65,-13.648c-2.98,-0 -5.73,0.965 -7.97,2.585c1.87,-0.851 3.95,-1.337 6.14,-1.337Z" style="fill:#aadef7;fill-rule:nonzero;"/><path d="M1523.66,431.351l0,-0.001l-0.01,-0.005l0.01,0.006Z" style="fill:#0d86c8;fill-rule:nonzero;"/><path d="M1469.69,477.883l-0,-0.001c0.06,-0.068 3.44,-3.567 9.45,-7.76c-6.07,4.234 -9.45,7.761 -9.45,7.761Z" style="fill:#8dc8e3;fill-rule:nonzero;"/><path d="M1469.69,477.882c-5.24,-8.3 -8.63,-16.275 -10.18,-24.36c3.15,-3.577 7.78,-5.84 12.94,-5.84c4.22,-0 8.09,1.532 11.08,4.034c-0.43,-1.704 -0.69,-3.451 -0.69,-5.285c-0,-12.275 10.55,-22.219 23.56,-22.219c6.82,-0 12.94,2.759 17.25,7.136c-0.06,-0.043 -4.83,-3.002 -10.94,-3.002c-3.65,-0 -7.78,1.053 -11.68,4.407c-5.59,4.811 -8.33,15.338 -0.24,26.513c-8.96,2.9 -16.33,7.149 -21.65,10.856c-6.01,4.193 -9.39,7.692 -9.45,7.76Z" style="fill:#118ece;fill-rule:nonzero;"/><path d="M1454.61,535.353c-7.52,-3.655 -12.25,-8.202 -13.77,-9.793l-0.47,-0.616c0.66,-0.324 5.67,-3.422 3.47,-21.281l-0.08,0.108c-4.51,4.94 -8.87,6.105 -9.41,6.213c5.48,-3.625 7.92,-7.141 9.04,-9.578c-0.15,-0.993 -0.33,-2.029 -0.52,-3.107c-0.6,-3.063 -1.38,-5.846 -2.22,-8.435c-3.69,8.716 -9.04,12.081 -9.04,12.081c5.57,-7.529 7.01,-13.397 7.23,-17.064c-1.6,-3.84 -3.3,-7.011 -4.88,-9.514c-0.02,9.751 -3.84,15.036 -3.84,15.036c4.06,-15.834 -1.66,-22.306 -1.66,-22.306l-0,-0.043c-0,-0 13.05,7.745 19.39,36.285c1.91,8.611 8.76,13.605 17.4,13.605c7.38,-0 16.07,-3.644 24.11,-11.793c-0.54,0.913 -1.1,1.816 -1.67,2.71c-3.27,5.123 -7.03,9.904 -11.38,14.074c-0.62,0.6 -1.24,1.186 -1.89,1.756c-0.11,0.106 -0.23,0.211 -0.36,0.315l-0.02,-0c-5.2,4.594 -11.22,8.327 -18.16,10.894c-0.43,0.151 -0.84,0.302 -1.27,0.453Z" style="fill:#118ece;fill-rule:nonzero;"/><path d="M1517.79,482.524c-1.09,-0.079 -1.82,-0.103 -2.07,-0.109c0.7,0.004 1.39,0.044 2.07,0.109Zm-2.07,-0.109c-0.04,-0 -0.07,-0.001 -0.1,-0.001l-0,-0.001c-0,-0 0.03,-0 0.1,0.002Z" style="fill:#0d86c8;fill-rule:nonzero;"/><path d="M1468.8,550.261c0.02,-0.008 0.03,-0.016 0.04,-0.025c37.65,-1.38 67.18,-3.441 86.44,-47.986l0,0.013c-19.26,44.568 -48.81,46.618 -86.48,47.998Z" style="fill:#8dc8e3;fill-rule:nonzero;"/><path d="M1468.84,550.236c7.84,-4.48 14.06,-9.325 18.97,-14.342c0.56,-0.064 1.08,-0.086 1.55,-0.086l0.36,-0c17.75,-0 29.28,-4.445 36.41,-10.372c7.3,-3.802 12.28,-11.42 12.28,-20.22c0,-11.792 -8.94,-21.483 -20.41,-22.676c7.35,0.557 29.72,3.566 37.28,19.71c-19.26,44.545 -48.79,46.606 -86.44,47.986Z" style="fill:#118ece;fill-rule:nonzero;"/><path d="M1523.66,431.352c-4.32,-4.379 -10.44,-7.14 -17.26,-7.14c-13.01,-0 -23.56,9.944 -23.56,22.219c-0,1.834 0.26,3.581 0.69,5.285c-2.99,-2.502 -6.86,-4.034 -11.08,-4.034c-5.16,-0 -9.8,2.265 -12.95,5.846c-0.04,-0.215 -0.08,-0.431 -0.13,-0.647c-0.04,-0.216 -0.06,-0.41 -0.1,-0.625c-0.03,-0.151 -0.05,-0.324 -0.07,-0.475c3.3,-4.617 8.72,-7.615 14.84,-7.615c2.4,-0 4.68,0.475 6.78,1.316c-0.09,-0.777 -0.13,-1.575 -0.13,-2.373c-0,-12.771 10.35,-23.104 23.1,-23.104c8.46,-0 15.83,4.551 19.87,11.347Z" style="fill:#aadef7;fill-rule:nonzero;"/><path d="M1515.61,482.414c-3.9,-0 -7.57,0.971 -10.78,2.697c0.38,2.696 0.62,5.738 0.6,9.017c2.63,-1.64 5.74,-2.589 9.08,-2.589c9.49,-0 17.19,7.68 17.19,17.172c-0,9.492 -7.7,17.193 -17.19,17.193c-6,-0 -11.26,-3.063 -14.34,-7.701c-0.39,0.841 -0.8,1.704 -1.26,2.545c4.17,4.466 10.1,7.27 16.7,7.27c12.6,-0 22.8,-10.203 22.8,-22.802c0,-12.598 -10.2,-22.802 -22.8,-22.802Z" style="fill:#aadef7;fill-rule:nonzero;"/><path d="M1454.61,535.353c-0.85,0.302 -1.71,0.561 -2.57,0.82c-0.69,0.215 -1.4,0.409 -2.12,0.582l-0.02,-0c-3.34,-1.92 -7.44,-4.983 -10.98,-9.729c-8.97,-12.059 -10.63,-21.422 -11.9,-28.066c0,-0 -2.42,11.175 9.36,28.54c0,-0 -1.81,1.532 -4.66,1.101c-0.24,-0.324 -0.43,-0.626 -0.65,-0.928c-8.02,-11.691 -12.96,-21.982 -15.51,-31.302c1.68,-15.424 12.88,-29.295 12.88,-29.295l0.02,0.021c-0,-0 5.72,6.472 1.66,22.307c-0,-0 3.82,-5.286 3.84,-15.036c1.58,2.502 3.28,5.673 4.88,9.513c-0.22,3.667 -1.66,9.535 -7.23,17.064c-0,-0 5.35,-3.365 9.04,-12.081c0.84,2.589 1.62,5.372 2.22,8.435c0.19,1.079 0.37,2.114 0.52,3.106c-1.12,2.438 -3.56,5.954 -9.04,9.579c0.54,-0.108 4.9,-1.273 9.41,-6.213l0.08,-0.108c2.35,19.092 -3.54,21.314 -3.54,21.314c0,-0 5.03,5.867 14.31,10.376Z" style="fill:#aadef7;fill-rule:nonzero;"/><path d="M341.688,474.77c-0,-4.912 -0.629,-9.322 -1.891,-13.218c-1.263,-3.896 -3.056,-7.209 -5.37,-9.94c-2.319,-2.742 -5.107,-4.832 -8.374,-6.272c-3.262,-1.439 -6.929,-2.159 -11.002,-2.159c-4.073,-0 -7.74,0.72 -11.002,2.159c-3.262,1.44 -6.055,3.53 -8.369,6.272c-2.319,2.731 -4.107,6.044 -5.369,9.94c-1.268,3.896 -1.897,8.306 -1.897,13.218c0,4.913 0.629,9.323 1.897,13.219c1.262,3.895 3.05,7.209 5.369,9.95c2.314,2.731 5.107,4.845 8.369,6.318c3.262,1.474 6.929,2.205 11.002,2.205c4.073,-0 7.74,-0.731 11.002,-2.205c3.267,-1.473 6.055,-3.587 8.374,-6.318c2.314,-2.741 4.107,-6.055 5.37,-9.95c1.262,-3.896 1.891,-8.306 1.891,-13.219Zm7.586,-0c-0,6.25 -0.914,11.756 -2.742,16.532c-1.822,4.775 -4.296,8.751 -7.421,11.95c-3.124,3.199 -6.757,5.598 -10.899,7.209c-4.141,1.622 -8.528,2.422 -13.161,2.422c-4.633,-0 -9.02,-0.8 -13.161,-2.422c-4.142,-1.611 -7.775,-4.01 -10.899,-7.209c-3.119,-3.199 -5.599,-7.175 -7.421,-11.95c-1.828,-4.776 -2.736,-10.282 -2.736,-16.532c0,-6.249 0.908,-11.744 2.736,-16.474c1.822,-4.742 4.302,-8.706 7.421,-11.905c3.124,-3.187 6.757,-5.598 10.899,-7.209c4.141,-1.611 8.528,-2.422 13.161,-2.422c4.633,-0 9.02,0.811 13.161,2.422c4.142,1.611 7.775,4.022 10.899,7.209c3.125,3.199 5.599,7.163 7.421,11.905c1.828,4.73 2.742,10.225 2.742,16.474Z" style="fill:#fff;fill-rule:nonzero;"/><path d="M364.851,458.764c2.034,-0.56 4.776,-1.188 8.215,-1.896c3.439,-0.697 7.649,-1.051 12.635,-1.051c4.142,-0 7.598,0.594 10.368,1.793c2.777,1.188 4.987,2.891 6.632,5.107c1.651,2.205 2.828,4.856 3.531,7.952c0.702,3.084 1.051,6.489 1.051,10.213l-0,30.424l-6.844,-0l-0,-28.219c-0,-3.861 -0.262,-7.117 -0.788,-9.791c-0.526,-2.662 -1.405,-4.844 -2.633,-6.523c-1.229,-1.691 -2.845,-2.902 -4.844,-3.633c-2,-0.743 -4.507,-1.108 -7.529,-1.108c-3.228,-0 -6.015,0.171 -8.369,0.525c-2.353,0.354 -3.879,0.663 -4.581,0.948l0,47.801l-6.844,-0l0,-52.542Z" style="fill:#fff;fill-rule:nonzero;"/><path d="M461.196,466.773c-0.634,-0.491 -1.422,-1.017 -2.371,-1.588c-0.948,-0.56 -2.056,-1.086 -3.319,-1.577c-1.262,-0.491 -2.633,-0.891 -4.107,-1.211c-1.473,-0.308 -3.016,-0.468 -4.632,-0.468c-3.365,-0 -6.193,0.594 -8.472,1.782c-2.285,1.2 -4.124,2.799 -5.529,4.798c-1.406,2 -2.422,4.353 -3.057,7.049c-0.628,2.708 -0.942,5.564 -0.942,8.58c-0,7.164 1.788,12.659 5.37,16.486c3.575,3.828 8.317,5.735 14.212,5.735c3.37,-0 6.089,-0.159 8.157,-0.479c2.074,-0.309 3.633,-0.64 4.69,-0.994l0,-38.113Zm6.843,42.854c-2.039,0.697 -4.632,1.36 -7.791,1.999c-3.159,0.629 -7.164,0.949 -12.008,0.949c-3.998,-0 -7.631,-0.652 -10.893,-1.954c-3.268,-1.302 -6.072,-3.176 -8.426,-5.632c-2.353,-2.457 -4.176,-5.439 -5.472,-8.946c-1.303,-3.507 -1.948,-7.483 -1.948,-11.905c0,-4.135 0.542,-7.951 1.628,-11.424c1.091,-3.473 2.685,-6.467 4.792,-9.003c2.108,-2.525 4.685,-4.49 7.741,-5.895c3.05,-1.405 6.546,-2.102 10.476,-2.102c3.582,-0 6.684,0.514 9.317,1.531c2.633,1.016 4.547,1.976 5.741,2.89l0,-29.27l6.843,-1.268l0,80.03Z" style="fill:#fff;fill-rule:nonzero;"/><path d="M521.524,479.717c-0.137,-5.678 -1.474,-10.111 -3.998,-13.264c-2.526,-3.153 -6.107,-4.741 -10.74,-4.741c-2.456,-0 -4.65,0.491 -6.58,1.474c-1.931,0.982 -3.616,2.307 -5.056,3.952c-1.439,1.646 -2.565,3.565 -3.37,5.736c-0.805,2.182 -1.28,4.455 -1.422,6.843l31.166,-0Zm-38.638,4.319c-0,-4.776 0.685,-8.935 2.051,-12.476c1.371,-3.542 3.158,-6.512 5.369,-8.9c2.211,-2.388 4.741,-4.159 7.58,-5.313c2.845,-1.165 5.776,-1.736 8.792,-1.736c6.671,-0 11.984,2.171 15.954,6.523c3.965,4.353 5.947,11.06 5.947,20.108c-0,0.571 -0.017,1.131 -0.051,1.691c-0.035,0.56 -0.092,1.085 -0.16,1.576l-38.216,-0c0.206,6.672 1.856,11.791 4.947,15.378c3.085,3.576 8.003,5.37 14.738,5.37c3.723,-0 6.671,-0.354 8.848,-1.063c2.171,-0.697 3.753,-1.291 4.736,-1.782l1.262,5.895c-0.982,0.56 -2.827,1.223 -5.524,1.999c-2.707,0.777 -5.883,1.154 -9.534,1.154c-4.769,-0 -8.842,-0.697 -12.213,-2.102c-3.364,-1.405 -6.14,-3.37 -8.317,-5.895c-2.176,-2.525 -3.753,-5.53 -4.735,-9.003c-0.983,-3.473 -1.474,-7.277 -1.474,-11.424Z" style="fill:#fff;fill-rule:nonzero;"/><path d="M562.379,455.817c2.245,-0 4.37,0.182 6.369,0.525c2.005,0.354 3.388,0.708 4.159,1.051l-1.365,5.907c-0.566,-0.286 -1.703,-0.583 -3.422,-0.903c-1.725,-0.308 -3.987,-0.468 -6.792,-0.468c-2.948,-0 -5.318,0.205 -7.106,0.628c-1.794,0.423 -2.971,0.777 -3.53,1.051l0,47.698l-6.844,-0l0,-51.902c1.754,-0.777 4.176,-1.565 7.266,-2.376c3.091,-0.8 6.844,-1.211 11.265,-1.211Z" style="fill:#fff;fill-rule:nonzero;"/><path d="M619.657,466.773c-0.634,-0.491 -1.423,-1.017 -2.371,-1.588c-0.948,-0.56 -2.056,-1.086 -3.319,-1.577c-1.262,-0.491 -2.633,-0.891 -4.107,-1.211c-1.474,-0.308 -3.016,-0.468 -4.633,-0.468c-3.364,-0 -6.192,0.594 -8.471,1.782c-2.285,1.2 -4.124,2.799 -5.53,4.798c-1.405,2 -2.422,4.353 -3.056,7.049c-0.628,2.708 -0.942,5.564 -0.942,8.58c0,7.164 1.788,12.659 5.369,16.486c3.576,3.828 8.318,5.735 14.213,5.735c3.37,-0 6.089,-0.159 8.157,-0.479c2.074,-0.309 3.633,-0.64 4.69,-0.994l-0,-38.113Zm6.843,42.854c-2.039,0.697 -4.633,1.36 -7.791,1.999c-3.159,0.629 -7.164,0.949 -12.008,0.949c-3.998,-0 -7.632,-0.652 -10.893,-1.954c-3.268,-1.302 -6.073,-3.176 -8.426,-5.632c-2.353,-2.457 -4.176,-5.439 -5.472,-8.946c-1.303,-3.507 -1.948,-7.483 -1.948,-11.905c-0,-4.135 0.542,-7.951 1.628,-11.424c1.091,-3.473 2.684,-6.467 4.792,-9.003c2.108,-2.525 4.684,-4.49 7.741,-5.895c3.05,-1.405 6.546,-2.102 10.476,-2.102c3.582,-0 6.684,0.514 9.317,1.531c2.633,1.016 4.547,1.976 5.741,2.89l-0,-29.27l6.843,-1.268l0,80.03Z" style="fill:#fff;fill-rule:nonzero;"/><path d="M679.985,479.717c-0.137,-5.678 -1.474,-10.111 -3.999,-13.264c-2.524,-3.153 -6.106,-4.741 -10.739,-4.741c-2.456,-0 -4.65,0.491 -6.58,1.474c-1.931,0.982 -3.616,2.307 -5.056,3.952c-1.439,1.646 -2.565,3.565 -3.37,5.736c-0.806,2.182 -1.28,4.455 -1.423,6.843l31.167,-0Zm-38.638,4.319c-0,-4.776 0.685,-8.935 2.05,-12.476c1.371,-3.542 3.159,-6.512 5.37,-8.9c2.211,-2.388 4.741,-4.159 7.58,-5.313c2.845,-1.165 5.775,-1.736 8.792,-1.736c6.672,-0 11.984,2.171 15.954,6.523c3.965,4.353 5.947,11.06 5.947,20.108c-0,0.571 -0.017,1.131 -0.052,1.691c-0.034,0.56 -0.091,1.085 -0.16,1.576l-38.215,-0c0.205,6.672 1.856,11.791 4.947,15.378c3.084,3.576 8.003,5.37 14.738,5.37c3.724,-0 6.672,-0.354 8.848,-1.063c2.171,-0.697 3.753,-1.291 4.736,-1.782l1.262,5.895c-0.983,0.56 -2.828,1.223 -5.524,1.999c-2.708,0.777 -5.884,1.154 -9.534,1.154c-4.77,-0 -8.843,-0.697 -12.213,-2.102c-3.364,-1.405 -6.141,-3.37 -8.317,-5.895c-2.176,-2.525 -3.753,-5.53 -4.736,-9.003c-0.982,-3.473 -1.473,-7.277 -1.473,-11.424Z" style="fill:#fff;fill-rule:nonzero;"/><path d="M737.686,479.717c-0.138,-5.678 -1.474,-10.111 -3.999,-13.264c-2.525,-3.153 -6.107,-4.741 -10.739,-4.741c-2.457,-0 -4.65,0.491 -6.581,1.474c-1.931,0.982 -3.616,2.307 -5.055,3.952c-1.44,1.646 -2.565,3.565 -3.371,5.736c-0.805,2.182 -1.279,4.455 -1.422,6.843l31.167,-0Zm-38.639,4.319c-0,-4.776 0.686,-8.935 2.051,-12.476c1.371,-3.542 3.159,-6.512 5.37,-8.9c2.21,-2.388 4.741,-4.159 7.58,-5.313c2.845,-1.165 5.775,-1.736 8.791,-1.736c6.672,-0 11.985,2.171 15.955,6.523c3.964,4.353 5.946,11.06 5.946,20.108c-0,0.571 -0.017,1.131 -0.051,1.691c-0.034,0.56 -0.091,1.085 -0.16,1.576l-38.216,-0c0.206,6.672 1.857,11.791 4.947,15.378c3.085,3.576 8.003,5.37 14.738,5.37c3.725,-0 6.672,-0.354 8.849,-1.063c2.17,-0.697 3.753,-1.291 4.735,-1.782l1.263,5.895c-0.983,0.56 -2.828,1.223 -5.524,1.999c-2.708,0.777 -5.884,1.154 -9.534,1.154c-4.77,-0 -8.843,-0.697 -12.213,-2.102c-3.365,-1.405 -6.141,-3.37 -8.317,-5.895c-2.177,-2.525 -3.754,-5.53 -4.736,-9.003c-0.983,-3.473 -1.474,-7.277 -1.474,-11.424Z" style="fill:#fff;fill-rule:nonzero;"/><path d="M773.805,512.255c-2.319,-0.069 -4.336,-0.366 -6.055,-0.891c-1.72,-0.526 -3.159,-1.337 -4.319,-2.423c-1.159,-1.096 -2.033,-2.49 -2.633,-4.215c-0.594,-1.714 -0.891,-3.873 -0.891,-6.478l-0,-67.383l6.843,-1.268l0,68.445c0,1.68 0.154,3.039 0.474,4.056c0.314,1.017 0.789,1.817 1.423,2.422c0.628,0.594 1.451,1.028 2.473,1.314c1.017,0.274 2.228,0.525 3.633,0.731l-0.948,5.69Z" style="fill:#fff;fill-rule:nonzero;"/><path d="M827.341,503.937c1.474,-3.016 2.988,-6.477 4.541,-10.373c1.548,-3.896 3.045,-7.929 4.49,-12.11c1.44,-4.17 2.776,-8.386 4.01,-12.636c1.234,-4.239 2.268,-8.226 3.114,-11.95l6.849,-0c-1.268,4.992 -2.685,9.905 -4.239,14.749c-1.554,4.844 -3.193,9.574 -4.924,14.212c-1.731,4.627 -3.536,9.083 -5.404,13.367c-1.873,4.284 -3.69,8.317 -5.455,12.11l-6.381,-0c-1.839,-3.793 -3.679,-7.826 -5.512,-12.11c-1.834,-4.284 -3.622,-8.74 -5.353,-13.367c-1.731,-4.638 -3.37,-9.368 -4.924,-14.212c-1.559,-4.844 -2.97,-9.757 -4.238,-14.749l7.26,-0c0.846,3.724 1.885,7.711 3.119,11.95c1.234,4.25 2.571,8.466 4.016,12.636c1.439,4.181 2.936,8.214 4.49,12.11c1.548,3.896 3.062,7.357 4.541,10.373Z" style="fill:#fff;fill-rule:nonzero;"/><path d="M878.564,506.359c2.662,-0 4.998,-0.091 6.997,-0.262c2.005,-0.172 3.702,-0.4 5.107,-0.686l0,-19.159c-0.771,-0.354 -1.999,-0.72 -3.684,-1.108c-1.685,-0.389 -3.999,-0.583 -6.946,-0.583c-1.686,-0 -3.445,0.126 -5.267,0.366c-1.828,0.251 -3.513,0.777 -5.056,1.588c-1.542,0.8 -2.804,1.908 -3.787,3.313c-0.983,1.405 -1.474,3.267 -1.474,5.575c-0,2.045 0.332,3.759 1,5.164c0.663,1.405 1.611,2.525 2.839,3.37c1.228,0.846 2.702,1.451 4.427,1.84c1.719,0.388 3.667,0.582 5.844,0.582Zm-0.634,-50.748c3.581,-0 6.615,0.503 9.105,1.519c2.491,1.029 4.513,2.422 6.055,4.216c1.543,1.794 2.662,3.919 3.371,6.375c0.697,2.456 1.051,5.118 1.051,7.997l0,34.32c-0.709,0.217 -1.725,0.446 -3.051,0.686c-1.336,0.251 -2.879,0.514 -4.632,0.788c-1.76,0.286 -3.702,0.514 -5.844,0.686c-2.142,0.182 -4.336,0.262 -6.581,0.262c-2.879,-0 -5.529,-0.308 -7.951,-0.948c-2.422,-0.628 -4.525,-1.622 -6.318,-2.993c-1.788,-1.371 -3.194,-3.131 -4.21,-5.267c-1.017,-2.136 -1.526,-4.753 -1.526,-7.849c-0,-2.947 0.56,-5.472 1.686,-7.574c1.119,-2.103 2.702,-3.851 4.735,-5.21c2.034,-1.371 4.456,-2.376 7.266,-3.005c2.805,-0.628 5.861,-0.948 9.157,-0.948c0.983,-0 2.022,0.057 3.108,0.16c1.091,0.103 2.142,0.24 3.159,0.423c1.016,0.171 1.896,0.354 2.633,0.525c0.737,0.172 1.245,0.331 1.525,0.469l0,-3.371c0,-1.896 -0.143,-3.736 -0.417,-5.518c-0.285,-1.794 -0.897,-3.404 -1.845,-4.844c-0.948,-1.439 -2.279,-2.605 -3.998,-3.484c-1.726,-0.869 -3.988,-1.314 -6.792,-1.314c-4.005,-0 -6.987,0.285 -8.952,0.845c-1.965,0.56 -3.404,1.017 -4.318,1.371l-0.949,-6.009c1.194,-0.56 3.039,-1.086 5.53,-1.577c2.491,-0.491 5.49,-0.731 9.003,-0.731Z" style="fill:#fff;fill-rule:nonzero;"/><path d="M914.992,458.764c2.033,-0.56 4.764,-1.188 8.202,-1.896c3.439,-0.697 7.655,-1.051 12.636,-1.051c4.147,-0 7.598,0.594 10.374,1.793c2.776,1.188 4.981,2.891 6.638,5.107c1.645,2.205 2.822,4.856 3.518,7.952c0.709,3.084 1.063,6.489 1.063,10.213l-0,30.424l-6.844,-0l-0,-28.219c-0,-3.861 -0.262,-7.117 -0.799,-9.791c-0.526,-2.662 -1.405,-4.844 -2.628,-6.523c-1.234,-1.691 -2.845,-2.902 -4.844,-3.633c-1.999,-0.743 -4.513,-1.108 -7.529,-1.108c-3.222,-0 -6.021,0.171 -8.363,0.525c-2.353,0.354 -3.884,0.663 -4.581,0.948l0,47.801l-6.843,-0l0,-52.542Z" style="fill:#fff;fill-rule:nonzero;"/><path d="M277.572,372.127l1283.66,-0l-0,-4l-1283.66,-0" style="fill:#fff;fill-rule:nonzero;"/></svg>