<svg width="132" height="48" viewBox="0 0 132 48" fill="none" xmlns="http://www.w3.org/2000/svg">
<g id="Quooker Logo">
<path d="M0 2C0 0.895431 0.895431 0 2 0H130C131.105 0 132 0.895431 132 2V46C132 47.1046 131.105 48 130 48H2C0.895429 48 0 47.1046 0 46V2Z" fill="#E62249"/>
<g id="Quooker">
<path fill-rule="evenodd" clip-rule="evenodd" d="M24.0231 11.3994C17.0584 11.3994 11.4102 17.042 11.4102 23.9998V24.0032C11.4102 30.961 17.0584 36.6036 24.0231 36.6036C26.6562 36.6036 29.1016 35.795 31.1268 34.4139L35.2014 38.939C35.2014 38.939 37.4246 36.9645 37.4593 36.902L33.4194 32.4046C35.4203 30.1767 36.636 27.2305 36.636 23.9998C36.636 17.042 30.9878 11.3994 24.0231 11.3994ZM28.9696 31.9223C27.5315 32.8106 25.8364 33.5116 24.0231 33.5116H24.0196C18.8126 33.5116 14.7831 29.2016 14.7831 23.9998C14.7831 18.7979 18.8126 14.4879 24.0196 14.4879C29.2267 14.4879 33.2562 18.8014 33.2562 23.9998C33.2562 26.2901 32.6309 28.2959 31.2692 29.9269L26.3922 24.6175L24.1343 26.6545L28.9696 31.9223Z" fill="white"/>
<path d="M47.7588 33.0917H50.9337V20.2346H47.5851V26.5261C47.5851 28.1744 47.0606 30.7944 44.6359 30.7944C42.4857 30.7944 42.4614 28.6707 42.4614 27.0987V20.2346H39.1128V28.3479C39.1128 31.2421 40.4363 33.3902 43.4862 33.3902C45.2369 33.3902 46.6854 32.592 47.7102 31.3427H47.7588V33.0917Z" fill="white"/>
<path fill-rule="evenodd" clip-rule="evenodd" d="M59.8993 19.9327C63.7238 19.9327 66.6487 22.5041 66.6487 26.7482C66.6487 30.4439 64.1754 33.3902 59.8993 33.3902C55.6232 33.3902 53.1777 30.4439 53.1777 26.7482C53.1777 22.5041 56.1026 19.9327 59.8993 19.9327ZM59.8993 30.7944C62.4733 30.7944 63.1472 28.4972 63.1472 26.3491C63.1472 24.378 62.0982 22.5284 59.8993 22.5284C57.7005 22.5284 56.6757 24.4266 56.6757 26.3491C56.6757 28.4694 57.3496 30.7944 59.8993 30.7944Z" fill="white"/>
<path fill-rule="evenodd" clip-rule="evenodd" d="M82.1934 26.7482C82.1934 22.5041 79.272 19.9327 75.4475 19.9327C71.6508 19.9327 68.7259 22.5041 68.7259 26.7482C68.7259 30.4439 71.1749 33.3902 75.4475 33.3902C79.7202 33.3902 82.1934 30.4439 82.1934 26.7482ZM78.6954 26.3491C78.6954 28.4972 78.0215 30.7944 75.4475 30.7944C72.8978 30.7944 72.2239 28.4694 72.2239 26.3491C72.2239 24.4266 73.2487 22.5284 75.4475 22.5284C77.6464 22.5284 78.6954 24.378 78.6954 26.3491Z" fill="white"/>
<path d="M84.6076 14.3664H87.9528V25.3774H88.0014L91.9996 20.2346H95.9492L91.152 25.9778L96.5502 33.0917H92.3018L88.0049 26.8488H87.9563V33.0917H84.6076V14.3664Z" fill="white"/>
<path fill-rule="evenodd" clip-rule="evenodd" d="M103.564 33.3902C105.363 33.3902 106.759 33.0397 107.986 32.3664L107.989 32.363V29.6423C106.742 30.3398 105.342 30.9402 103.716 30.9402C101.639 30.9402 100.191 29.7673 100.041 27.6955H108.937C108.937 23.2016 107.586 19.9327 102.813 19.9327C98.815 19.9327 96.8419 23.0038 96.8419 26.7239C96.8419 30.9437 99.3152 33.3902 103.564 33.3902ZM103.015 22.3826C104.887 22.3826 105.637 23.7777 105.738 25.4017H100.041C100.191 23.6805 101.142 22.3826 103.015 22.3826Z" fill="white"/>
<path d="M111.157 20.2346H114.13V23.1565H114.179C114.328 21.9593 116.802 19.9465 118.803 19.9465C119.679 19.9465 120.062 20.0928 120.355 20.2047C120.437 20.236 120.511 20.2646 120.588 20.2866V23.3716C120.289 23.1981 119.515 22.8338 118.17 22.8511C114.586 22.8928 114.506 26.5295 114.506 28.3757V33.0952H111.157V20.2346Z" fill="white"/>
<path fill-rule="evenodd" clip-rule="evenodd" d="M123.377 22.3965H123.648V21.6365H123.954L124.416 22.3965H124.715L124.215 21.6227C124.472 21.5914 124.67 21.4561 124.67 21.1403C124.67 20.7933 124.461 20.6406 124.048 20.6406H123.377V22.3965ZM124.392 21.1264C124.392 21.3936 124.19 21.411 123.964 21.411L123.968 21.4144H123.648V20.8696H124.01C124.194 20.8696 124.392 20.9078 124.392 21.1264Z" fill="white"/>
<path fill-rule="evenodd" clip-rule="evenodd" d="M123.968 19.9986C123.127 19.9986 122.419 20.6406 122.419 21.5151C122.419 22.3965 123.138 23.042 123.968 23.042C124.798 23.042 125.507 22.3861 125.507 21.5151C125.507 20.6441 124.809 19.9986 123.968 19.9986ZM125.201 21.5151C125.201 22.2508 124.656 22.7886 123.968 22.7886C123.273 22.7886 122.728 22.2334 122.728 21.5151C122.728 20.7967 123.28 20.2519 123.968 20.2519C124.656 20.2519 125.201 20.7794 125.201 21.5151Z" fill="white"/>
</g>
</g>
</svg>
